<mxfile host="app.diagrams.net" agent="Mozilla/5.0 (Windows NT 10.0; Win64; x64) AppleWebKit/537.36 (KHTML, like Gecko) Chrome/131.0.0.0 Safari/537.36" version="24.9.3">
  <diagram name="Halaman-1" id="Kqx1ZdF4BFPi9wgiej6m">
    <mxGraphModel grid="1" page="1" gridSize="10" guides="1" tooltips="1" connect="1" arrows="1" fold="1" pageScale="1" pageWidth="827" pageHeight="1169" math="0" shadow="0">
      <root>
        <mxCell id="0" />
        <mxCell id="1" parent="0" />
        <mxCell id="ERKtHGVF_LXqR5S4KciH-1" value="&lt;font style=&quot;font-size: 24px;&quot;&gt;ReelVerse&lt;/font&gt;&lt;div&gt;&lt;font style=&quot;font-size: 24px;&quot;&gt;(web Film)&lt;/font&gt;&lt;/div&gt;" style="text;html=1;align=center;verticalAlign=middle;whiteSpace=wrap;rounded=0;fillColor=#f8cecc;strokeColor=#b85450;" vertex="1" parent="1">
          <mxGeometry x="1450" y="-1150" width="580" height="139" as="geometry" />
        </mxCell>
        <mxCell id="D_dh7wm_FY2fWaWjNn0V-18" value="" style="edgeStyle=orthogonalEdgeStyle;rounded=0;orthogonalLoop=1;jettySize=auto;html=1;" edge="1" parent="1" source="D_dh7wm_FY2fWaWjNn0V-15" target="D_dh7wm_FY2fWaWjNn0V-17">
          <mxGeometry relative="1" as="geometry" />
        </mxCell>
        <mxCell id="D_dh7wm_FY2fWaWjNn0V-19" value="true" style="edgeLabel;html=1;align=center;verticalAlign=middle;resizable=0;points=[];" vertex="1" connectable="0" parent="D_dh7wm_FY2fWaWjNn0V-18">
          <mxGeometry x="-0.2681" y="2" relative="1" as="geometry">
            <mxPoint as="offset" />
          </mxGeometry>
        </mxCell>
        <mxCell id="D_dh7wm_FY2fWaWjNn0V-21" value="" style="edgeStyle=orthogonalEdgeStyle;rounded=0;orthogonalLoop=1;jettySize=auto;html=1;" edge="1" parent="1" source="D_dh7wm_FY2fWaWjNn0V-15" target="D_dh7wm_FY2fWaWjNn0V-20">
          <mxGeometry relative="1" as="geometry" />
        </mxCell>
        <mxCell id="D_dh7wm_FY2fWaWjNn0V-184" value="false" style="edgeLabel;html=1;align=center;verticalAlign=middle;resizable=0;points=[];" vertex="1" connectable="0" parent="D_dh7wm_FY2fWaWjNn0V-21">
          <mxGeometry x="-0.1492" y="2" relative="1" as="geometry">
            <mxPoint as="offset" />
          </mxGeometry>
        </mxCell>
        <mxCell id="D_dh7wm_FY2fWaWjNn0V-15" value="if input&lt;br&gt;== sigin" style="rhombus;whiteSpace=wrap;html=1;" vertex="1" parent="1">
          <mxGeometry x="340" y="-820" width="150" height="80" as="geometry" />
        </mxCell>
        <mxCell id="D_dh7wm_FY2fWaWjNn0V-23" value="" style="edgeStyle=orthogonalEdgeStyle;rounded=0;orthogonalLoop=1;jettySize=auto;html=1;" edge="1" parent="1" source="D_dh7wm_FY2fWaWjNn0V-17" target="D_dh7wm_FY2fWaWjNn0V-22">
          <mxGeometry relative="1" as="geometry" />
        </mxCell>
        <mxCell id="D_dh7wm_FY2fWaWjNn0V-17" value="input username&amp;nbsp; &amp;amp;&lt;br&gt;password" style="shape=parallelogram;perimeter=parallelogramPerimeter;whiteSpace=wrap;html=1;fixedSize=1;" vertex="1" parent="1">
          <mxGeometry x="340" y="-680" width="150" height="60" as="geometry" />
        </mxCell>
        <mxCell id="D_dh7wm_FY2fWaWjNn0V-20" value="B" style="ellipse;whiteSpace=wrap;html=1;" vertex="1" parent="1">
          <mxGeometry x="580" y="-797.5" width="30" height="35" as="geometry" />
        </mxCell>
        <mxCell id="D_dh7wm_FY2fWaWjNn0V-272" value="" style="edgeStyle=orthogonalEdgeStyle;rounded=0;orthogonalLoop=1;jettySize=auto;html=1;" edge="1" parent="1" source="D_dh7wm_FY2fWaWjNn0V-22" target="D_dh7wm_FY2fWaWjNn0V-49">
          <mxGeometry relative="1" as="geometry" />
        </mxCell>
        <mxCell id="D_dh7wm_FY2fWaWjNn0V-273" value="false" style="edgeLabel;html=1;align=center;verticalAlign=middle;resizable=0;points=[];" vertex="1" connectable="0" parent="D_dh7wm_FY2fWaWjNn0V-272">
          <mxGeometry x="-0.1667" relative="1" as="geometry">
            <mxPoint as="offset" />
          </mxGeometry>
        </mxCell>
        <mxCell id="D_dh7wm_FY2fWaWjNn0V-277" value="" style="edgeStyle=orthogonalEdgeStyle;rounded=0;orthogonalLoop=1;jettySize=auto;html=1;" edge="1" parent="1" source="D_dh7wm_FY2fWaWjNn0V-22" target="D_dh7wm_FY2fWaWjNn0V-276">
          <mxGeometry relative="1" as="geometry" />
        </mxCell>
        <mxCell id="D_dh7wm_FY2fWaWjNn0V-279" value="true" style="edgeLabel;html=1;align=center;verticalAlign=middle;resizable=0;points=[];" vertex="1" connectable="0" parent="D_dh7wm_FY2fWaWjNn0V-277">
          <mxGeometry x="-0.194" y="-3" relative="1" as="geometry">
            <mxPoint as="offset" />
          </mxGeometry>
        </mxCell>
        <mxCell id="D_dh7wm_FY2fWaWjNn0V-22" value="if&amp;nbsp;&lt;br&gt;username &amp;amp;&amp;amp; password&lt;br&gt;== true" style="rhombus;whiteSpace=wrap;html=1;" vertex="1" parent="1">
          <mxGeometry x="315" y="-600" width="200" height="80" as="geometry" />
        </mxCell>
        <mxCell id="D_dh7wm_FY2fWaWjNn0V-26" value="" style="edgeStyle=orthogonalEdgeStyle;rounded=0;orthogonalLoop=1;jettySize=auto;html=1;" edge="1" parent="1" source="D_dh7wm_FY2fWaWjNn0V-24" target="D_dh7wm_FY2fWaWjNn0V-25">
          <mxGeometry relative="1" as="geometry" />
        </mxCell>
        <mxCell id="D_dh7wm_FY2fWaWjNn0V-24" value="B" style="ellipse;whiteSpace=wrap;html=1;" vertex="1" parent="1">
          <mxGeometry x="840" y="-880" width="30" height="30" as="geometry" />
        </mxCell>
        <mxCell id="D_dh7wm_FY2fWaWjNn0V-28" value="" style="edgeStyle=orthogonalEdgeStyle;rounded=0;orthogonalLoop=1;jettySize=auto;html=1;" edge="1" parent="1" source="D_dh7wm_FY2fWaWjNn0V-25" target="D_dh7wm_FY2fWaWjNn0V-27">
          <mxGeometry relative="1" as="geometry" />
        </mxCell>
        <mxCell id="D_dh7wm_FY2fWaWjNn0V-29" value="true" style="edgeLabel;html=1;align=center;verticalAlign=middle;resizable=0;points=[];" vertex="1" connectable="0" parent="D_dh7wm_FY2fWaWjNn0V-28">
          <mxGeometry x="-0.4907" relative="1" as="geometry">
            <mxPoint as="offset" />
          </mxGeometry>
        </mxCell>
        <mxCell id="D_dh7wm_FY2fWaWjNn0V-25" value="if input ==&lt;br&gt;signup" style="rhombus;whiteSpace=wrap;html=1;" vertex="1" parent="1">
          <mxGeometry x="910" y="-905" width="100" height="80" as="geometry" />
        </mxCell>
        <mxCell id="D_dh7wm_FY2fWaWjNn0V-31" value="" style="edgeStyle=orthogonalEdgeStyle;rounded=0;orthogonalLoop=1;jettySize=auto;html=1;" edge="1" parent="1" source="D_dh7wm_FY2fWaWjNn0V-27" target="D_dh7wm_FY2fWaWjNn0V-30">
          <mxGeometry relative="1" as="geometry" />
        </mxCell>
        <mxCell id="D_dh7wm_FY2fWaWjNn0V-27" value="input username&lt;br&gt;input password&lt;br&gt;input confirm password" style="shape=parallelogram;perimeter=parallelogramPerimeter;whiteSpace=wrap;html=1;fixedSize=1;" vertex="1" parent="1">
          <mxGeometry x="880" y="-790" width="160" height="60" as="geometry" />
        </mxCell>
        <mxCell id="D_dh7wm_FY2fWaWjNn0V-36" value="" style="edgeStyle=orthogonalEdgeStyle;rounded=0;orthogonalLoop=1;jettySize=auto;html=1;" edge="1" parent="1" source="D_dh7wm_FY2fWaWjNn0V-30" target="D_dh7wm_FY2fWaWjNn0V-35">
          <mxGeometry relative="1" as="geometry" />
        </mxCell>
        <mxCell id="D_dh7wm_FY2fWaWjNn0V-37" value="false" style="edgeLabel;html=1;align=center;verticalAlign=middle;resizable=0;points=[];" vertex="1" connectable="0" parent="D_dh7wm_FY2fWaWjNn0V-36">
          <mxGeometry x="-0.0818" y="-1" relative="1" as="geometry">
            <mxPoint as="offset" />
          </mxGeometry>
        </mxCell>
        <mxCell id="D_dh7wm_FY2fWaWjNn0V-63" value="" style="edgeStyle=orthogonalEdgeStyle;rounded=0;orthogonalLoop=1;jettySize=auto;html=1;" edge="1" parent="1" source="D_dh7wm_FY2fWaWjNn0V-30" target="D_dh7wm_FY2fWaWjNn0V-62">
          <mxGeometry relative="1" as="geometry" />
        </mxCell>
        <mxCell id="D_dh7wm_FY2fWaWjNn0V-65" value="true" style="edgeLabel;html=1;align=center;verticalAlign=middle;resizable=0;points=[];" vertex="1" connectable="0" parent="D_dh7wm_FY2fWaWjNn0V-63">
          <mxGeometry x="-0.1547" y="-1" relative="1" as="geometry">
            <mxPoint as="offset" />
          </mxGeometry>
        </mxCell>
        <mxCell id="D_dh7wm_FY2fWaWjNn0V-30" value="if&lt;br&gt;&amp;nbsp;confirm password &lt;br&gt;== true" style="rhombus;whiteSpace=wrap;html=1;" vertex="1" parent="1">
          <mxGeometry x="890" y="-680" width="140" height="80" as="geometry" />
        </mxCell>
        <mxCell id="D_dh7wm_FY2fWaWjNn0V-44" value="" style="edgeStyle=orthogonalEdgeStyle;rounded=0;orthogonalLoop=1;jettySize=auto;html=1;" edge="1" parent="1" source="D_dh7wm_FY2fWaWjNn0V-32" target="D_dh7wm_FY2fWaWjNn0V-43">
          <mxGeometry relative="1" as="geometry" />
        </mxCell>
        <mxCell id="D_dh7wm_FY2fWaWjNn0V-32" value="output&lt;br&gt;Signup Succesfull&lt;br&gt;please login now" style="shape=parallelogram;perimeter=parallelogramPerimeter;whiteSpace=wrap;html=1;fixedSize=1;" vertex="1" parent="1">
          <mxGeometry x="890" y="-430" width="140" height="60" as="geometry" />
        </mxCell>
        <mxCell id="D_dh7wm_FY2fWaWjNn0V-39" style="edgeStyle=orthogonalEdgeStyle;rounded=0;orthogonalLoop=1;jettySize=auto;html=1;entryX=1;entryY=0.5;entryDx=0;entryDy=0;" edge="1" parent="1" source="D_dh7wm_FY2fWaWjNn0V-35" target="D_dh7wm_FY2fWaWjNn0V-27">
          <mxGeometry relative="1" as="geometry">
            <mxPoint x="1170" y="-780" as="targetPoint" />
            <Array as="points">
              <mxPoint x="1180" y="-760" />
            </Array>
          </mxGeometry>
        </mxCell>
        <mxCell id="D_dh7wm_FY2fWaWjNn0V-35" value="output&lt;br&gt;signup failed" style="shape=parallelogram;perimeter=parallelogramPerimeter;whiteSpace=wrap;html=1;fixedSize=1;" vertex="1" parent="1">
          <mxGeometry x="1120" y="-670" width="120" height="60" as="geometry" />
        </mxCell>
        <mxCell id="D_dh7wm_FY2fWaWjNn0V-43" value="A" style="ellipse;whiteSpace=wrap;html=1;" vertex="1" parent="1">
          <mxGeometry x="940" y="-330" width="40" height="40" as="geometry" />
        </mxCell>
        <mxCell id="D_dh7wm_FY2fWaWjNn0V-46" value="" style="edgeStyle=orthogonalEdgeStyle;rounded=0;orthogonalLoop=1;jettySize=auto;html=1;" edge="1" parent="1" source="D_dh7wm_FY2fWaWjNn0V-45" target="D_dh7wm_FY2fWaWjNn0V-17">
          <mxGeometry relative="1" as="geometry" />
        </mxCell>
        <mxCell id="D_dh7wm_FY2fWaWjNn0V-45" value="A" style="ellipse;whiteSpace=wrap;html=1;aspect=fixed;" vertex="1" parent="1">
          <mxGeometry x="250" y="-670" width="40" height="40" as="geometry" />
        </mxCell>
        <mxCell id="D_dh7wm_FY2fWaWjNn0V-49" value="output&lt;br&gt;login failed" style="shape=parallelogram;perimeter=parallelogramPerimeter;whiteSpace=wrap;html=1;fixedSize=1;" vertex="1" parent="1">
          <mxGeometry x="585" y="-590" width="120" height="60" as="geometry" />
        </mxCell>
        <mxCell id="D_dh7wm_FY2fWaWjNn0V-50" value="" style="endArrow=classic;html=1;rounded=0;entryX=1;entryY=0.5;entryDx=0;entryDy=0;" edge="1" parent="1" target="D_dh7wm_FY2fWaWjNn0V-17">
          <mxGeometry width="50" height="50" relative="1" as="geometry">
            <mxPoint x="645" y="-590" as="sourcePoint" />
            <mxPoint x="475" y="-720" as="targetPoint" />
            <Array as="points">
              <mxPoint x="645" y="-650" />
            </Array>
          </mxGeometry>
        </mxCell>
        <mxCell id="D_dh7wm_FY2fWaWjNn0V-67" value="" style="edgeStyle=orthogonalEdgeStyle;rounded=0;orthogonalLoop=1;jettySize=auto;html=1;" edge="1" parent="1" source="D_dh7wm_FY2fWaWjNn0V-52" target="D_dh7wm_FY2fWaWjNn0V-66">
          <mxGeometry relative="1" as="geometry" />
        </mxCell>
        <mxCell id="D_dh7wm_FY2fWaWjNn0V-69" value="true" style="edgeLabel;html=1;align=center;verticalAlign=middle;resizable=0;points=[];" vertex="1" connectable="0" parent="D_dh7wm_FY2fWaWjNn0V-67">
          <mxGeometry x="-0.2265" y="2" relative="1" as="geometry">
            <mxPoint as="offset" />
          </mxGeometry>
        </mxCell>
        <mxCell id="D_dh7wm_FY2fWaWjNn0V-266" value="" style="edgeStyle=orthogonalEdgeStyle;rounded=0;orthogonalLoop=1;jettySize=auto;html=1;" edge="1" parent="1" source="D_dh7wm_FY2fWaWjNn0V-52" target="D_dh7wm_FY2fWaWjNn0V-265">
          <mxGeometry relative="1" as="geometry" />
        </mxCell>
        <mxCell id="D_dh7wm_FY2fWaWjNn0V-280" value="false" style="edgeLabel;html=1;align=center;verticalAlign=middle;resizable=0;points=[];" vertex="1" connectable="0" parent="D_dh7wm_FY2fWaWjNn0V-266">
          <mxGeometry x="-0.1152" relative="1" as="geometry">
            <mxPoint x="1" as="offset" />
          </mxGeometry>
        </mxCell>
        <mxCell id="D_dh7wm_FY2fWaWjNn0V-52" value="if role == admin" style="rhombus;whiteSpace=wrap;html=1;" vertex="1" parent="1">
          <mxGeometry x="319" y="-320" width="190" height="80" as="geometry" />
        </mxCell>
        <mxCell id="D_dh7wm_FY2fWaWjNn0V-164" value="" style="edgeStyle=orthogonalEdgeStyle;rounded=0;orthogonalLoop=1;jettySize=auto;html=1;" edge="1" parent="1" source="D_dh7wm_FY2fWaWjNn0V-56" target="D_dh7wm_FY2fWaWjNn0V-163">
          <mxGeometry relative="1" as="geometry" />
        </mxCell>
        <mxCell id="D_dh7wm_FY2fWaWjNn0V-56" value="Start" style="strokeWidth=2;html=1;shape=mxgraph.flowchart.terminator;whiteSpace=wrap;" vertex="1" parent="1">
          <mxGeometry x="380" y="-1070" width="70" height="30" as="geometry" />
        </mxCell>
        <mxCell id="D_dh7wm_FY2fWaWjNn0V-62" value="users" style="shape=cylinder3;whiteSpace=wrap;html=1;boundedLbl=1;backgroundOutline=1;size=15;" vertex="1" parent="1">
          <mxGeometry x="930" y="-550" width="60" height="80" as="geometry" />
        </mxCell>
        <mxCell id="D_dh7wm_FY2fWaWjNn0V-64" style="edgeStyle=orthogonalEdgeStyle;rounded=0;orthogonalLoop=1;jettySize=auto;html=1;entryX=0.5;entryY=0;entryDx=0;entryDy=0;" edge="1" parent="1" source="D_dh7wm_FY2fWaWjNn0V-62" target="D_dh7wm_FY2fWaWjNn0V-32">
          <mxGeometry relative="1" as="geometry">
            <mxPoint x="970" y="-380" as="targetPoint" />
          </mxGeometry>
        </mxCell>
        <mxCell id="D_dh7wm_FY2fWaWjNn0V-168" value="" style="edgeStyle=orthogonalEdgeStyle;rounded=0;orthogonalLoop=1;jettySize=auto;html=1;" edge="1" parent="1" source="D_dh7wm_FY2fWaWjNn0V-66" target="D_dh7wm_FY2fWaWjNn0V-167">
          <mxGeometry relative="1" as="geometry" />
        </mxCell>
        <mxCell id="D_dh7wm_FY2fWaWjNn0V-66" value="save login and&lt;br&gt;role data to localstorage" style="whiteSpace=wrap;html=1;" vertex="1" parent="1">
          <mxGeometry x="330" y="-200" width="170" height="60" as="geometry" />
        </mxCell>
        <mxCell id="D_dh7wm_FY2fWaWjNn0V-74" value="" style="edgeStyle=orthogonalEdgeStyle;rounded=0;orthogonalLoop=1;jettySize=auto;html=1;" edge="1" parent="1" source="D_dh7wm_FY2fWaWjNn0V-71" target="D_dh7wm_FY2fWaWjNn0V-73">
          <mxGeometry relative="1" as="geometry" />
        </mxCell>
        <mxCell id="D_dh7wm_FY2fWaWjNn0V-75" value="true" style="edgeLabel;html=1;align=center;verticalAlign=middle;resizable=0;points=[];" vertex="1" connectable="0" parent="D_dh7wm_FY2fWaWjNn0V-74">
          <mxGeometry x="-0.2222" y="1" relative="1" as="geometry">
            <mxPoint as="offset" />
          </mxGeometry>
        </mxCell>
        <mxCell id="D_dh7wm_FY2fWaWjNn0V-79" value="" style="edgeStyle=orthogonalEdgeStyle;rounded=0;orthogonalLoop=1;jettySize=auto;html=1;" edge="1" parent="1" source="D_dh7wm_FY2fWaWjNn0V-71" target="D_dh7wm_FY2fWaWjNn0V-78">
          <mxGeometry relative="1" as="geometry" />
        </mxCell>
        <mxCell id="D_dh7wm_FY2fWaWjNn0V-80" value="false" style="edgeLabel;html=1;align=center;verticalAlign=middle;resizable=0;points=[];" vertex="1" connectable="0" parent="D_dh7wm_FY2fWaWjNn0V-79">
          <mxGeometry x="-0.0165" y="-1" relative="1" as="geometry">
            <mxPoint as="offset" />
          </mxGeometry>
        </mxCell>
        <mxCell id="D_dh7wm_FY2fWaWjNn0V-71" value="Dashboard" style="rhombus;whiteSpace=wrap;html=1;" vertex="1" parent="1">
          <mxGeometry x="350" y="115" width="130" height="80" as="geometry" />
        </mxCell>
        <mxCell id="D_dh7wm_FY2fWaWjNn0V-77" value="" style="edgeStyle=orthogonalEdgeStyle;rounded=0;orthogonalLoop=1;jettySize=auto;html=1;" edge="1" parent="1" source="D_dh7wm_FY2fWaWjNn0V-73" target="D_dh7wm_FY2fWaWjNn0V-76">
          <mxGeometry relative="1" as="geometry" />
        </mxCell>
        <mxCell id="D_dh7wm_FY2fWaWjNn0V-73" value="output daashboard page&lt;div&gt;&lt;br&gt;data users,film and genre&lt;/div&gt;" style="shape=parallelogram;perimeter=parallelogramPerimeter;whiteSpace=wrap;html=1;fixedSize=1;" vertex="1" parent="1">
          <mxGeometry x="320" y="285" width="190" height="60" as="geometry" />
        </mxCell>
        <mxCell id="D_dh7wm_FY2fWaWjNn0V-76" value="C" style="ellipse;whiteSpace=wrap;html=1;" vertex="1" parent="1">
          <mxGeometry x="397.5" y="415" width="35" height="35" as="geometry" />
        </mxCell>
        <mxCell id="D_dh7wm_FY2fWaWjNn0V-162" value="" style="edgeStyle=orthogonalEdgeStyle;rounded=0;orthogonalLoop=1;jettySize=auto;html=1;" edge="1" parent="1" source="D_dh7wm_FY2fWaWjNn0V-78" target="D_dh7wm_FY2fWaWjNn0V-159">
          <mxGeometry relative="1" as="geometry" />
        </mxCell>
        <mxCell id="D_dh7wm_FY2fWaWjNn0V-182" value="true" style="edgeLabel;html=1;align=center;verticalAlign=middle;resizable=0;points=[];" vertex="1" connectable="0" parent="D_dh7wm_FY2fWaWjNn0V-162">
          <mxGeometry x="-0.2815" y="1" relative="1" as="geometry">
            <mxPoint as="offset" />
          </mxGeometry>
        </mxCell>
        <mxCell id="D_dh7wm_FY2fWaWjNn0V-179" value="" style="edgeStyle=orthogonalEdgeStyle;rounded=0;orthogonalLoop=1;jettySize=auto;html=1;" edge="1" parent="1" source="D_dh7wm_FY2fWaWjNn0V-78" target="D_dh7wm_FY2fWaWjNn0V-178">
          <mxGeometry relative="1" as="geometry" />
        </mxCell>
        <mxCell id="D_dh7wm_FY2fWaWjNn0V-183" value="fales" style="edgeLabel;html=1;align=center;verticalAlign=middle;resizable=0;points=[];" vertex="1" connectable="0" parent="D_dh7wm_FY2fWaWjNn0V-179">
          <mxGeometry x="0.0891" y="-1" relative="1" as="geometry">
            <mxPoint as="offset" />
          </mxGeometry>
        </mxCell>
        <mxCell id="D_dh7wm_FY2fWaWjNn0V-78" value="Genre Controller" style="rhombus;whiteSpace=wrap;html=1;" vertex="1" parent="1">
          <mxGeometry x="652.5" y="112.5" width="135" height="85" as="geometry" />
        </mxCell>
        <mxCell id="D_dh7wm_FY2fWaWjNn0V-86" value="" style="edgeStyle=orthogonalEdgeStyle;rounded=0;orthogonalLoop=1;jettySize=auto;html=1;" edge="1" parent="1" source="D_dh7wm_FY2fWaWjNn0V-83" target="D_dh7wm_FY2fWaWjNn0V-85">
          <mxGeometry relative="1" as="geometry" />
        </mxCell>
        <mxCell id="D_dh7wm_FY2fWaWjNn0V-87" value="true" style="edgeLabel;html=1;align=center;verticalAlign=middle;resizable=0;points=[];" vertex="1" connectable="0" parent="D_dh7wm_FY2fWaWjNn0V-86">
          <mxGeometry x="-0.1686" y="-1" relative="1" as="geometry">
            <mxPoint as="offset" />
          </mxGeometry>
        </mxCell>
        <mxCell id="D_dh7wm_FY2fWaWjNn0V-106" value="" style="edgeStyle=orthogonalEdgeStyle;rounded=0;orthogonalLoop=1;jettySize=auto;html=1;" edge="1" parent="1" source="D_dh7wm_FY2fWaWjNn0V-83" target="D_dh7wm_FY2fWaWjNn0V-105">
          <mxGeometry relative="1" as="geometry" />
        </mxCell>
        <mxCell id="D_dh7wm_FY2fWaWjNn0V-107" value="false" style="edgeLabel;html=1;align=center;verticalAlign=middle;resizable=0;points=[];" vertex="1" connectable="0" parent="D_dh7wm_FY2fWaWjNn0V-106">
          <mxGeometry x="-0.3694" y="1" relative="1" as="geometry">
            <mxPoint as="offset" />
          </mxGeometry>
        </mxCell>
        <mxCell id="D_dh7wm_FY2fWaWjNn0V-83" value="add genre" style="rhombus;whiteSpace=wrap;html=1;" vertex="1" parent="1">
          <mxGeometry x="650" y="440" width="140" height="80" as="geometry" />
        </mxCell>
        <mxCell id="D_dh7wm_FY2fWaWjNn0V-89" value="" style="edgeStyle=orthogonalEdgeStyle;rounded=0;orthogonalLoop=1;jettySize=auto;html=1;" edge="1" parent="1" source="D_dh7wm_FY2fWaWjNn0V-85" target="D_dh7wm_FY2fWaWjNn0V-88">
          <mxGeometry relative="1" as="geometry" />
        </mxCell>
        <mxCell id="D_dh7wm_FY2fWaWjNn0V-85" value="input genre name" style="shape=parallelogram;perimeter=parallelogramPerimeter;whiteSpace=wrap;html=1;fixedSize=1;" vertex="1" parent="1">
          <mxGeometry x="650" y="610" width="140" height="60" as="geometry" />
        </mxCell>
        <mxCell id="D_dh7wm_FY2fWaWjNn0V-91" value="" style="edgeStyle=orthogonalEdgeStyle;rounded=0;orthogonalLoop=1;jettySize=auto;html=1;" edge="1" parent="1" source="D_dh7wm_FY2fWaWjNn0V-88" target="D_dh7wm_FY2fWaWjNn0V-90">
          <mxGeometry relative="1" as="geometry" />
        </mxCell>
        <mxCell id="D_dh7wm_FY2fWaWjNn0V-92" value="true" style="edgeLabel;html=1;align=center;verticalAlign=middle;resizable=0;points=[];" vertex="1" connectable="0" parent="D_dh7wm_FY2fWaWjNn0V-91">
          <mxGeometry x="-0.324" y="1" relative="1" as="geometry">
            <mxPoint as="offset" />
          </mxGeometry>
        </mxCell>
        <mxCell id="D_dh7wm_FY2fWaWjNn0V-94" value="" style="edgeStyle=orthogonalEdgeStyle;rounded=0;orthogonalLoop=1;jettySize=auto;html=1;" edge="1" parent="1" source="D_dh7wm_FY2fWaWjNn0V-88">
          <mxGeometry relative="1" as="geometry">
            <mxPoint x="600" y="780" as="targetPoint" />
          </mxGeometry>
        </mxCell>
        <mxCell id="D_dh7wm_FY2fWaWjNn0V-96" value="false" style="edgeLabel;html=1;align=center;verticalAlign=middle;resizable=0;points=[];" vertex="1" connectable="0" parent="D_dh7wm_FY2fWaWjNn0V-94">
          <mxGeometry x="-0.1812" y="-2" relative="1" as="geometry">
            <mxPoint as="offset" />
          </mxGeometry>
        </mxCell>
        <mxCell id="D_dh7wm_FY2fWaWjNn0V-88" value="if add&amp;nbsp;" style="rhombus;whiteSpace=wrap;html=1;" vertex="1" parent="1">
          <mxGeometry x="670" y="740" width="100" height="80" as="geometry" />
        </mxCell>
        <mxCell id="D_dh7wm_FY2fWaWjNn0V-99" value="" style="edgeStyle=orthogonalEdgeStyle;rounded=0;orthogonalLoop=1;jettySize=auto;html=1;" edge="1" parent="1" source="D_dh7wm_FY2fWaWjNn0V-90" target="D_dh7wm_FY2fWaWjNn0V-98">
          <mxGeometry relative="1" as="geometry" />
        </mxCell>
        <mxCell id="D_dh7wm_FY2fWaWjNn0V-90" value="genres" style="shape=cylinder3;whiteSpace=wrap;html=1;boundedLbl=1;backgroundOutline=1;size=15;" vertex="1" parent="1">
          <mxGeometry x="690" y="870" width="60" height="80" as="geometry" />
        </mxCell>
        <mxCell id="D_dh7wm_FY2fWaWjNn0V-120" value="" style="edgeStyle=orthogonalEdgeStyle;rounded=0;orthogonalLoop=1;jettySize=auto;html=1;" edge="1" parent="1" source="D_dh7wm_FY2fWaWjNn0V-97" target="D_dh7wm_FY2fWaWjNn0V-119">
          <mxGeometry relative="1" as="geometry" />
        </mxCell>
        <mxCell id="D_dh7wm_FY2fWaWjNn0V-97" value="output&lt;br&gt;you canceled add genre" style="shape=parallelogram;perimeter=parallelogramPerimeter;whiteSpace=wrap;html=1;fixedSize=1;" vertex="1" parent="1">
          <mxGeometry x="490" y="750" width="120" height="60" as="geometry" />
        </mxCell>
        <mxCell id="D_dh7wm_FY2fWaWjNn0V-102" value="" style="edgeStyle=orthogonalEdgeStyle;rounded=0;orthogonalLoop=1;jettySize=auto;html=1;" edge="1" parent="1" source="D_dh7wm_FY2fWaWjNn0V-98" target="D_dh7wm_FY2fWaWjNn0V-101">
          <mxGeometry relative="1" as="geometry" />
        </mxCell>
        <mxCell id="D_dh7wm_FY2fWaWjNn0V-98" value="ouput&lt;br&gt;add genre succes" style="shape=parallelogram;perimeter=parallelogramPerimeter;whiteSpace=wrap;html=1;fixedSize=1;" vertex="1" parent="1">
          <mxGeometry x="660" y="1000" width="120" height="60" as="geometry" />
        </mxCell>
        <mxCell id="D_dh7wm_FY2fWaWjNn0V-101" value="D" style="ellipse;whiteSpace=wrap;html=1;" vertex="1" parent="1">
          <mxGeometry x="700" y="1110" width="40" height="40" as="geometry" />
        </mxCell>
        <mxCell id="D_dh7wm_FY2fWaWjNn0V-169" value="" style="edgeStyle=orthogonalEdgeStyle;rounded=0;orthogonalLoop=1;jettySize=auto;html=1;" edge="1" parent="1" source="D_dh7wm_FY2fWaWjNn0V-103" target="D_dh7wm_FY2fWaWjNn0V-167">
          <mxGeometry relative="1" as="geometry" />
        </mxCell>
        <mxCell id="D_dh7wm_FY2fWaWjNn0V-103" value="C" style="ellipse;whiteSpace=wrap;html=1;aspect=fixed;" vertex="1" parent="1">
          <mxGeometry x="190" y="-60" width="40" height="40" as="geometry" />
        </mxCell>
        <mxCell id="D_dh7wm_FY2fWaWjNn0V-109" value="" style="edgeStyle=orthogonalEdgeStyle;rounded=0;orthogonalLoop=1;jettySize=auto;html=1;" edge="1" parent="1" source="D_dh7wm_FY2fWaWjNn0V-105" target="D_dh7wm_FY2fWaWjNn0V-108">
          <mxGeometry relative="1" as="geometry" />
        </mxCell>
        <mxCell id="D_dh7wm_FY2fWaWjNn0V-132" value="true" style="edgeLabel;html=1;align=center;verticalAlign=middle;resizable=0;points=[];" vertex="1" connectable="0" parent="D_dh7wm_FY2fWaWjNn0V-109">
          <mxGeometry x="-0.2094" relative="1" as="geometry">
            <mxPoint as="offset" />
          </mxGeometry>
        </mxCell>
        <mxCell id="D_dh7wm_FY2fWaWjNn0V-131" value="" style="edgeStyle=orthogonalEdgeStyle;rounded=0;orthogonalLoop=1;jettySize=auto;html=1;" edge="1" parent="1" source="D_dh7wm_FY2fWaWjNn0V-105" target="D_dh7wm_FY2fWaWjNn0V-130">
          <mxGeometry relative="1" as="geometry" />
        </mxCell>
        <mxCell id="D_dh7wm_FY2fWaWjNn0V-133" value="false" style="edgeLabel;html=1;align=center;verticalAlign=middle;resizable=0;points=[];" vertex="1" connectable="0" parent="D_dh7wm_FY2fWaWjNn0V-131">
          <mxGeometry x="-0.1866" y="-1" relative="1" as="geometry">
            <mxPoint as="offset" />
          </mxGeometry>
        </mxCell>
        <mxCell id="D_dh7wm_FY2fWaWjNn0V-105" value="edit genre" style="rhombus;whiteSpace=wrap;html=1;" vertex="1" parent="1">
          <mxGeometry x="930" y="440" width="140" height="80" as="geometry" />
        </mxCell>
        <mxCell id="D_dh7wm_FY2fWaWjNn0V-111" value="" style="edgeStyle=orthogonalEdgeStyle;rounded=0;orthogonalLoop=1;jettySize=auto;html=1;" edge="1" parent="1" source="D_dh7wm_FY2fWaWjNn0V-108" target="D_dh7wm_FY2fWaWjNn0V-110">
          <mxGeometry relative="1" as="geometry" />
        </mxCell>
        <mxCell id="D_dh7wm_FY2fWaWjNn0V-108" value="input&lt;br&gt;select the genre you&lt;br&gt;want to edit" style="shape=parallelogram;perimeter=parallelogramPerimeter;whiteSpace=wrap;html=1;fixedSize=1;" vertex="1" parent="1">
          <mxGeometry x="930" y="610" width="140" height="60" as="geometry" />
        </mxCell>
        <mxCell id="D_dh7wm_FY2fWaWjNn0V-113" value="" style="edgeStyle=orthogonalEdgeStyle;rounded=0;orthogonalLoop=1;jettySize=auto;html=1;" edge="1" parent="1" source="D_dh7wm_FY2fWaWjNn0V-110" target="D_dh7wm_FY2fWaWjNn0V-112">
          <mxGeometry relative="1" as="geometry" />
        </mxCell>
        <mxCell id="D_dh7wm_FY2fWaWjNn0V-110" value="input new genre name" style="shape=parallelogram;perimeter=parallelogramPerimeter;whiteSpace=wrap;html=1;fixedSize=1;" vertex="1" parent="1">
          <mxGeometry x="940" y="750" width="120" height="60" as="geometry" />
        </mxCell>
        <mxCell id="D_dh7wm_FY2fWaWjNn0V-115" value="" style="edgeStyle=orthogonalEdgeStyle;rounded=0;orthogonalLoop=1;jettySize=auto;html=1;" edge="1" parent="1" source="D_dh7wm_FY2fWaWjNn0V-112" target="D_dh7wm_FY2fWaWjNn0V-114">
          <mxGeometry relative="1" as="geometry">
            <Array as="points">
              <mxPoint x="1000" y="1000" />
              <mxPoint x="1000" y="1000" />
            </Array>
          </mxGeometry>
        </mxCell>
        <mxCell id="D_dh7wm_FY2fWaWjNn0V-118" value="true" style="edgeLabel;html=1;align=center;verticalAlign=middle;resizable=0;points=[];" vertex="1" connectable="0" parent="D_dh7wm_FY2fWaWjNn0V-115">
          <mxGeometry x="-0.0571" y="1" relative="1" as="geometry">
            <mxPoint as="offset" />
          </mxGeometry>
        </mxCell>
        <mxCell id="D_dh7wm_FY2fWaWjNn0V-117" value="" style="edgeStyle=orthogonalEdgeStyle;rounded=0;orthogonalLoop=1;jettySize=auto;html=1;" edge="1" parent="1" source="D_dh7wm_FY2fWaWjNn0V-112" target="D_dh7wm_FY2fWaWjNn0V-116">
          <mxGeometry relative="1" as="geometry" />
        </mxCell>
        <mxCell id="D_dh7wm_FY2fWaWjNn0V-129" value="false" style="edgeLabel;html=1;align=center;verticalAlign=middle;resizable=0;points=[];" vertex="1" connectable="0" parent="D_dh7wm_FY2fWaWjNn0V-117">
          <mxGeometry x="0.1012" y="-1" relative="1" as="geometry">
            <mxPoint as="offset" />
          </mxGeometry>
        </mxCell>
        <mxCell id="D_dh7wm_FY2fWaWjNn0V-112" value="if edit" style="rhombus;whiteSpace=wrap;html=1;" vertex="1" parent="1">
          <mxGeometry x="940" y="880" width="120" height="70" as="geometry" />
        </mxCell>
        <mxCell id="D_dh7wm_FY2fWaWjNn0V-126" value="" style="edgeStyle=orthogonalEdgeStyle;rounded=0;orthogonalLoop=1;jettySize=auto;html=1;" edge="1" parent="1" source="D_dh7wm_FY2fWaWjNn0V-114" target="D_dh7wm_FY2fWaWjNn0V-125">
          <mxGeometry relative="1" as="geometry" />
        </mxCell>
        <mxCell id="D_dh7wm_FY2fWaWjNn0V-114" value="genres" style="shape=cylinder3;whiteSpace=wrap;html=1;boundedLbl=1;backgroundOutline=1;size=15;" vertex="1" parent="1">
          <mxGeometry x="970" y="1000" width="60" height="80" as="geometry" />
        </mxCell>
        <mxCell id="D_dh7wm_FY2fWaWjNn0V-124" value="" style="edgeStyle=orthogonalEdgeStyle;rounded=0;orthogonalLoop=1;jettySize=auto;html=1;" edge="1" parent="1" source="D_dh7wm_FY2fWaWjNn0V-116" target="D_dh7wm_FY2fWaWjNn0V-123">
          <mxGeometry relative="1" as="geometry" />
        </mxCell>
        <mxCell id="D_dh7wm_FY2fWaWjNn0V-116" value="output&lt;br&gt;you canceled&lt;br&gt;edit genre" style="shape=parallelogram;perimeter=parallelogramPerimeter;whiteSpace=wrap;html=1;fixedSize=1;" vertex="1" parent="1">
          <mxGeometry x="787.5" y="885" width="120" height="60" as="geometry" />
        </mxCell>
        <mxCell id="D_dh7wm_FY2fWaWjNn0V-119" value="D" style="ellipse;whiteSpace=wrap;html=1;" vertex="1" parent="1">
          <mxGeometry x="430" y="760" width="40" height="40" as="geometry" />
        </mxCell>
        <mxCell id="D_dh7wm_FY2fWaWjNn0V-161" value="" style="edgeStyle=orthogonalEdgeStyle;rounded=0;orthogonalLoop=1;jettySize=auto;html=1;" edge="1" parent="1" source="D_dh7wm_FY2fWaWjNn0V-121" target="D_dh7wm_FY2fWaWjNn0V-159">
          <mxGeometry relative="1" as="geometry" />
        </mxCell>
        <mxCell id="D_dh7wm_FY2fWaWjNn0V-121" value="D" style="ellipse;whiteSpace=wrap;html=1;aspect=fixed;" vertex="1" parent="1">
          <mxGeometry x="550" y="295" width="40" height="40" as="geometry" />
        </mxCell>
        <mxCell id="D_dh7wm_FY2fWaWjNn0V-123" value="D" style="ellipse;whiteSpace=wrap;html=1;" vertex="1" parent="1">
          <mxGeometry x="827" y="970" width="45" height="40" as="geometry" />
        </mxCell>
        <mxCell id="D_dh7wm_FY2fWaWjNn0V-128" value="" style="edgeStyle=orthogonalEdgeStyle;rounded=0;orthogonalLoop=1;jettySize=auto;html=1;" edge="1" parent="1" source="D_dh7wm_FY2fWaWjNn0V-125" target="D_dh7wm_FY2fWaWjNn0V-127">
          <mxGeometry relative="1" as="geometry" />
        </mxCell>
        <mxCell id="D_dh7wm_FY2fWaWjNn0V-125" value="output&lt;br&gt;edit genre succes" style="shape=parallelogram;perimeter=parallelogramPerimeter;whiteSpace=wrap;html=1;fixedSize=1;" vertex="1" parent="1">
          <mxGeometry x="940" y="1120" width="120" height="60" as="geometry" />
        </mxCell>
        <mxCell id="D_dh7wm_FY2fWaWjNn0V-127" value="D" style="ellipse;whiteSpace=wrap;html=1;" vertex="1" parent="1">
          <mxGeometry x="980" y="1220" width="40" height="40" as="geometry" />
        </mxCell>
        <mxCell id="D_dh7wm_FY2fWaWjNn0V-137" value="" style="edgeStyle=orthogonalEdgeStyle;rounded=0;orthogonalLoop=1;jettySize=auto;html=1;" edge="1" parent="1" source="D_dh7wm_FY2fWaWjNn0V-130" target="D_dh7wm_FY2fWaWjNn0V-136">
          <mxGeometry relative="1" as="geometry" />
        </mxCell>
        <mxCell id="D_dh7wm_FY2fWaWjNn0V-174" value="true" style="edgeLabel;html=1;align=center;verticalAlign=middle;resizable=0;points=[];" vertex="1" connectable="0" parent="D_dh7wm_FY2fWaWjNn0V-137">
          <mxGeometry x="-0.3768" y="-1" relative="1" as="geometry">
            <mxPoint as="offset" />
          </mxGeometry>
        </mxCell>
        <mxCell id="D_dh7wm_FY2fWaWjNn0V-172" value="" style="edgeStyle=orthogonalEdgeStyle;rounded=0;orthogonalLoop=1;jettySize=auto;html=1;" edge="1" parent="1" source="D_dh7wm_FY2fWaWjNn0V-130" target="D_dh7wm_FY2fWaWjNn0V-171">
          <mxGeometry relative="1" as="geometry" />
        </mxCell>
        <mxCell id="D_dh7wm_FY2fWaWjNn0V-173" value="false" style="edgeLabel;html=1;align=center;verticalAlign=middle;resizable=0;points=[];" vertex="1" connectable="0" parent="D_dh7wm_FY2fWaWjNn0V-172">
          <mxGeometry x="-0.2308" y="-2" relative="1" as="geometry">
            <mxPoint as="offset" />
          </mxGeometry>
        </mxCell>
        <mxCell id="D_dh7wm_FY2fWaWjNn0V-130" value="delete genre" style="rhombus;whiteSpace=wrap;html=1;" vertex="1" parent="1">
          <mxGeometry x="1260" y="440" width="140" height="80" as="geometry" />
        </mxCell>
        <mxCell id="D_dh7wm_FY2fWaWjNn0V-139" value="" style="edgeStyle=orthogonalEdgeStyle;rounded=0;orthogonalLoop=1;jettySize=auto;html=1;" edge="1" parent="1" source="D_dh7wm_FY2fWaWjNn0V-136" target="D_dh7wm_FY2fWaWjNn0V-138">
          <mxGeometry relative="1" as="geometry" />
        </mxCell>
        <mxCell id="D_dh7wm_FY2fWaWjNn0V-136" value="input&lt;br&gt;select genre you want&lt;br&gt;to delete" style="shape=parallelogram;perimeter=parallelogramPerimeter;whiteSpace=wrap;html=1;fixedSize=1;" vertex="1" parent="1">
          <mxGeometry x="1255" y="610" width="150" height="60" as="geometry" />
        </mxCell>
        <mxCell id="D_dh7wm_FY2fWaWjNn0V-141" value="" style="edgeStyle=orthogonalEdgeStyle;rounded=0;orthogonalLoop=1;jettySize=auto;html=1;" edge="1" parent="1" source="D_dh7wm_FY2fWaWjNn0V-138" target="D_dh7wm_FY2fWaWjNn0V-140">
          <mxGeometry relative="1" as="geometry" />
        </mxCell>
        <mxCell id="D_dh7wm_FY2fWaWjNn0V-142" value="true" style="edgeLabel;html=1;align=center;verticalAlign=middle;resizable=0;points=[];" vertex="1" connectable="0" parent="D_dh7wm_FY2fWaWjNn0V-141">
          <mxGeometry x="-0.2182" relative="1" as="geometry">
            <mxPoint as="offset" />
          </mxGeometry>
        </mxCell>
        <mxCell id="D_dh7wm_FY2fWaWjNn0V-148" value="" style="edgeStyle=orthogonalEdgeStyle;rounded=0;orthogonalLoop=1;jettySize=auto;html=1;" edge="1" parent="1" source="D_dh7wm_FY2fWaWjNn0V-138" target="D_dh7wm_FY2fWaWjNn0V-147">
          <mxGeometry relative="1" as="geometry" />
        </mxCell>
        <mxCell id="D_dh7wm_FY2fWaWjNn0V-149" value="false" style="edgeLabel;html=1;align=center;verticalAlign=middle;resizable=0;points=[];" vertex="1" connectable="0" parent="D_dh7wm_FY2fWaWjNn0V-148">
          <mxGeometry x="-0.2121" y="-1" relative="1" as="geometry">
            <mxPoint as="offset" />
          </mxGeometry>
        </mxCell>
        <mxCell id="D_dh7wm_FY2fWaWjNn0V-138" value="if delete" style="rhombus;whiteSpace=wrap;html=1;" vertex="1" parent="1">
          <mxGeometry x="1275" y="740" width="110" height="80" as="geometry" />
        </mxCell>
        <mxCell id="D_dh7wm_FY2fWaWjNn0V-144" value="" style="edgeStyle=orthogonalEdgeStyle;rounded=0;orthogonalLoop=1;jettySize=auto;html=1;" edge="1" parent="1" source="D_dh7wm_FY2fWaWjNn0V-140" target="D_dh7wm_FY2fWaWjNn0V-143">
          <mxGeometry relative="1" as="geometry" />
        </mxCell>
        <mxCell id="D_dh7wm_FY2fWaWjNn0V-140" value="genres" style="shape=cylinder3;whiteSpace=wrap;html=1;boundedLbl=1;backgroundOutline=1;size=15;" vertex="1" parent="1">
          <mxGeometry x="1300" y="875" width="60" height="80" as="geometry" />
        </mxCell>
        <mxCell id="D_dh7wm_FY2fWaWjNn0V-146" value="" style="edgeStyle=orthogonalEdgeStyle;rounded=0;orthogonalLoop=1;jettySize=auto;html=1;" edge="1" parent="1" source="D_dh7wm_FY2fWaWjNn0V-143" target="D_dh7wm_FY2fWaWjNn0V-145">
          <mxGeometry relative="1" as="geometry" />
        </mxCell>
        <mxCell id="D_dh7wm_FY2fWaWjNn0V-143" value="output&lt;br&gt;delete genre&amp;nbsp;&lt;br&gt;succes" style="shape=parallelogram;perimeter=parallelogramPerimeter;whiteSpace=wrap;html=1;fixedSize=1;" vertex="1" parent="1">
          <mxGeometry x="1270" y="1020" width="120" height="60" as="geometry" />
        </mxCell>
        <mxCell id="D_dh7wm_FY2fWaWjNn0V-145" value="D" style="ellipse;whiteSpace=wrap;html=1;" vertex="1" parent="1">
          <mxGeometry x="1315" y="1130" width="30" height="30" as="geometry" />
        </mxCell>
        <mxCell id="D_dh7wm_FY2fWaWjNn0V-151" value="" style="edgeStyle=orthogonalEdgeStyle;rounded=0;orthogonalLoop=1;jettySize=auto;html=1;" edge="1" parent="1" source="D_dh7wm_FY2fWaWjNn0V-147" target="D_dh7wm_FY2fWaWjNn0V-150">
          <mxGeometry relative="1" as="geometry" />
        </mxCell>
        <mxCell id="D_dh7wm_FY2fWaWjNn0V-147" value="output&lt;br&gt;you canceled&lt;br&gt;delte genre" style="shape=parallelogram;perimeter=parallelogramPerimeter;whiteSpace=wrap;html=1;fixedSize=1;" vertex="1" parent="1">
          <mxGeometry x="1110" y="750" width="120" height="60" as="geometry" />
        </mxCell>
        <mxCell id="D_dh7wm_FY2fWaWjNn0V-150" value="D" style="ellipse;whiteSpace=wrap;html=1;" vertex="1" parent="1">
          <mxGeometry x="1150" y="880" width="40" height="40" as="geometry" />
        </mxCell>
        <mxCell id="D_dh7wm_FY2fWaWjNn0V-166" value="" style="edgeStyle=orthogonalEdgeStyle;rounded=0;orthogonalLoop=1;jettySize=auto;html=1;" edge="1" parent="1" source="D_dh7wm_FY2fWaWjNn0V-159" target="D_dh7wm_FY2fWaWjNn0V-83">
          <mxGeometry relative="1" as="geometry" />
        </mxCell>
        <mxCell id="D_dh7wm_FY2fWaWjNn0V-159" value="input&lt;br&gt;fitur in genre contrroller&lt;br&gt;&lt;br&gt;[1]. add genre&lt;br&gt;[2]. edit genre&lt;br&gt;[3]. delete genre&lt;br&gt;[4].back" style="shape=parallelogram;perimeter=parallelogramPerimeter;whiteSpace=wrap;html=1;fixedSize=1;" vertex="1" parent="1">
          <mxGeometry x="635" y="265" width="170" height="100" as="geometry" />
        </mxCell>
        <mxCell id="D_dh7wm_FY2fWaWjNn0V-165" value="" style="edgeStyle=orthogonalEdgeStyle;rounded=0;orthogonalLoop=1;jettySize=auto;html=1;" edge="1" parent="1" source="D_dh7wm_FY2fWaWjNn0V-163" target="D_dh7wm_FY2fWaWjNn0V-15">
          <mxGeometry relative="1" as="geometry" />
        </mxCell>
        <mxCell id="D_dh7wm_FY2fWaWjNn0V-163" value="[1] Sigin&lt;br&gt;[2] Signup" style="shape=parallelogram;perimeter=parallelogramPerimeter;whiteSpace=wrap;html=1;fixedSize=1;" vertex="1" parent="1">
          <mxGeometry x="355" y="-950" width="120" height="60" as="geometry" />
        </mxCell>
        <mxCell id="D_dh7wm_FY2fWaWjNn0V-170" value="" style="edgeStyle=orthogonalEdgeStyle;rounded=0;orthogonalLoop=1;jettySize=auto;html=1;" edge="1" parent="1" source="D_dh7wm_FY2fWaWjNn0V-167" target="D_dh7wm_FY2fWaWjNn0V-71">
          <mxGeometry relative="1" as="geometry" />
        </mxCell>
        <mxCell id="D_dh7wm_FY2fWaWjNn0V-167" value="input&lt;br&gt;Fitur Admin&lt;br&gt;&lt;br&gt;[1]. Dashboard&lt;br&gt;[2]. Genre Controller&lt;br&gt;[3]. Film Controller&lt;br&gt;[4]. LogOut" style="shape=parallelogram;perimeter=parallelogramPerimeter;whiteSpace=wrap;html=1;fixedSize=1;" vertex="1" parent="1">
          <mxGeometry x="300" y="-100" width="230" height="120" as="geometry" />
        </mxCell>
        <mxCell id="D_dh7wm_FY2fWaWjNn0V-176" value="" style="edgeStyle=orthogonalEdgeStyle;rounded=0;orthogonalLoop=1;jettySize=auto;html=1;" edge="1" parent="1" source="D_dh7wm_FY2fWaWjNn0V-171" target="D_dh7wm_FY2fWaWjNn0V-175">
          <mxGeometry relative="1" as="geometry" />
        </mxCell>
        <mxCell id="D_dh7wm_FY2fWaWjNn0V-177" value="true" style="edgeLabel;html=1;align=center;verticalAlign=middle;resizable=0;points=[];" vertex="1" connectable="0" parent="D_dh7wm_FY2fWaWjNn0V-176">
          <mxGeometry x="-0.05" y="-1" relative="1" as="geometry">
            <mxPoint as="offset" />
          </mxGeometry>
        </mxCell>
        <mxCell id="D_dh7wm_FY2fWaWjNn0V-171" value="back" style="rhombus;whiteSpace=wrap;html=1;" vertex="1" parent="1">
          <mxGeometry x="1510" y="440" width="120" height="80" as="geometry" />
        </mxCell>
        <mxCell id="D_dh7wm_FY2fWaWjNn0V-175" value="C" style="ellipse;whiteSpace=wrap;html=1;" vertex="1" parent="1">
          <mxGeometry x="1545" y="600" width="50" height="50" as="geometry" />
        </mxCell>
        <mxCell id="D_dh7wm_FY2fWaWjNn0V-181" value="" style="edgeStyle=orthogonalEdgeStyle;rounded=0;orthogonalLoop=1;jettySize=auto;html=1;" edge="1" parent="1" source="D_dh7wm_FY2fWaWjNn0V-178" target="D_dh7wm_FY2fWaWjNn0V-180">
          <mxGeometry relative="1" as="geometry" />
        </mxCell>
        <mxCell id="D_dh7wm_FY2fWaWjNn0V-256" value="true" style="edgeLabel;html=1;align=center;verticalAlign=middle;resizable=0;points=[];" vertex="1" connectable="0" parent="D_dh7wm_FY2fWaWjNn0V-181">
          <mxGeometry x="-0.0444" y="-2" relative="1" as="geometry">
            <mxPoint as="offset" />
          </mxGeometry>
        </mxCell>
        <mxCell id="D_dh7wm_FY2fWaWjNn0V-258" value="" style="edgeStyle=orthogonalEdgeStyle;rounded=0;orthogonalLoop=1;jettySize=auto;html=1;" edge="1" parent="1" source="D_dh7wm_FY2fWaWjNn0V-178" target="D_dh7wm_FY2fWaWjNn0V-257">
          <mxGeometry relative="1" as="geometry" />
        </mxCell>
        <mxCell id="D_dh7wm_FY2fWaWjNn0V-263" value="false" style="edgeLabel;html=1;align=center;verticalAlign=middle;resizable=0;points=[];" vertex="1" connectable="0" parent="D_dh7wm_FY2fWaWjNn0V-258">
          <mxGeometry x="0.0329" y="-6" relative="1" as="geometry">
            <mxPoint as="offset" />
          </mxGeometry>
        </mxCell>
        <mxCell id="D_dh7wm_FY2fWaWjNn0V-178" value="Film controller" style="rhombus;whiteSpace=wrap;html=1;" vertex="1" parent="1">
          <mxGeometry x="1910" y="115" width="140" height="80" as="geometry" />
        </mxCell>
        <mxCell id="D_dh7wm_FY2fWaWjNn0V-186" value="" style="edgeStyle=orthogonalEdgeStyle;rounded=0;orthogonalLoop=1;jettySize=auto;html=1;" edge="1" parent="1" source="D_dh7wm_FY2fWaWjNn0V-180" target="D_dh7wm_FY2fWaWjNn0V-185">
          <mxGeometry relative="1" as="geometry" />
        </mxCell>
        <mxCell id="D_dh7wm_FY2fWaWjNn0V-180" value="inputf&lt;br&gt;itur in film contrroller&lt;br&gt;&lt;br&gt;[1]. add film&lt;br&gt;[2]. edit film&lt;br&gt;[3]. delete film&lt;br&gt;[4].back" style="shape=parallelogram;perimeter=parallelogramPerimeter;whiteSpace=wrap;html=1;fixedSize=1;" vertex="1" parent="1">
          <mxGeometry x="1860" y="285" width="240" height="115" as="geometry" />
        </mxCell>
        <mxCell id="D_dh7wm_FY2fWaWjNn0V-188" value="" style="edgeStyle=orthogonalEdgeStyle;rounded=0;orthogonalLoop=1;jettySize=auto;html=1;" edge="1" parent="1" source="D_dh7wm_FY2fWaWjNn0V-185" target="D_dh7wm_FY2fWaWjNn0V-187">
          <mxGeometry relative="1" as="geometry" />
        </mxCell>
        <mxCell id="D_dh7wm_FY2fWaWjNn0V-189" value="true" style="edgeLabel;html=1;align=center;verticalAlign=middle;resizable=0;points=[];" vertex="1" connectable="0" parent="D_dh7wm_FY2fWaWjNn0V-188">
          <mxGeometry x="-0.2159" relative="1" as="geometry">
            <mxPoint as="offset" />
          </mxGeometry>
        </mxCell>
        <mxCell id="D_dh7wm_FY2fWaWjNn0V-207" value="" style="edgeStyle=orthogonalEdgeStyle;rounded=0;orthogonalLoop=1;jettySize=auto;html=1;" edge="1" parent="1" source="D_dh7wm_FY2fWaWjNn0V-185" target="D_dh7wm_FY2fWaWjNn0V-206">
          <mxGeometry relative="1" as="geometry" />
        </mxCell>
        <mxCell id="D_dh7wm_FY2fWaWjNn0V-208" value="false" style="edgeLabel;html=1;align=center;verticalAlign=middle;resizable=0;points=[];" vertex="1" connectable="0" parent="D_dh7wm_FY2fWaWjNn0V-207">
          <mxGeometry x="0.0944" relative="1" as="geometry">
            <mxPoint as="offset" />
          </mxGeometry>
        </mxCell>
        <mxCell id="D_dh7wm_FY2fWaWjNn0V-185" value="add film" style="rhombus;whiteSpace=wrap;html=1;" vertex="1" parent="1">
          <mxGeometry x="1900" y="460" width="160" height="80" as="geometry" />
        </mxCell>
        <mxCell id="D_dh7wm_FY2fWaWjNn0V-191" value="" style="edgeStyle=orthogonalEdgeStyle;rounded=0;orthogonalLoop=1;jettySize=auto;html=1;" edge="1" parent="1" source="D_dh7wm_FY2fWaWjNn0V-187" target="D_dh7wm_FY2fWaWjNn0V-190">
          <mxGeometry relative="1" as="geometry" />
        </mxCell>
        <mxCell id="D_dh7wm_FY2fWaWjNn0V-187" value="input data film" style="shape=parallelogram;perimeter=parallelogramPerimeter;whiteSpace=wrap;html=1;fixedSize=1;" vertex="1" parent="1">
          <mxGeometry x="1890" y="630" width="180" height="70" as="geometry" />
        </mxCell>
        <mxCell id="D_dh7wm_FY2fWaWjNn0V-193" value="" style="edgeStyle=orthogonalEdgeStyle;rounded=0;orthogonalLoop=1;jettySize=auto;html=1;" edge="1" parent="1" source="D_dh7wm_FY2fWaWjNn0V-190" target="D_dh7wm_FY2fWaWjNn0V-192">
          <mxGeometry relative="1" as="geometry" />
        </mxCell>
        <mxCell id="D_dh7wm_FY2fWaWjNn0V-194" value="true" style="edgeLabel;html=1;align=center;verticalAlign=middle;resizable=0;points=[];" vertex="1" connectable="0" parent="D_dh7wm_FY2fWaWjNn0V-193">
          <mxGeometry x="-0.1723" relative="1" as="geometry">
            <mxPoint as="offset" />
          </mxGeometry>
        </mxCell>
        <mxCell id="D_dh7wm_FY2fWaWjNn0V-196" value="" style="edgeStyle=orthogonalEdgeStyle;rounded=0;orthogonalLoop=1;jettySize=auto;html=1;" edge="1" parent="1" source="D_dh7wm_FY2fWaWjNn0V-190" target="D_dh7wm_FY2fWaWjNn0V-195">
          <mxGeometry relative="1" as="geometry" />
        </mxCell>
        <mxCell id="D_dh7wm_FY2fWaWjNn0V-226" value="false" style="edgeLabel;html=1;align=center;verticalAlign=middle;resizable=0;points=[];" vertex="1" connectable="0" parent="D_dh7wm_FY2fWaWjNn0V-196">
          <mxGeometry x="-0.1741" y="1" relative="1" as="geometry">
            <mxPoint as="offset" />
          </mxGeometry>
        </mxCell>
        <mxCell id="D_dh7wm_FY2fWaWjNn0V-190" value="if add" style="rhombus;whiteSpace=wrap;html=1;" vertex="1" parent="1">
          <mxGeometry x="1920" y="775" width="120" height="80" as="geometry" />
        </mxCell>
        <mxCell id="D_dh7wm_FY2fWaWjNn0V-200" value="" style="edgeStyle=orthogonalEdgeStyle;rounded=0;orthogonalLoop=1;jettySize=auto;html=1;" edge="1" parent="1" source="D_dh7wm_FY2fWaWjNn0V-192" target="D_dh7wm_FY2fWaWjNn0V-199">
          <mxGeometry relative="1" as="geometry" />
        </mxCell>
        <mxCell id="D_dh7wm_FY2fWaWjNn0V-192" value="films" style="shape=cylinder3;whiteSpace=wrap;html=1;boundedLbl=1;backgroundOutline=1;size=15;" vertex="1" parent="1">
          <mxGeometry x="1950" y="920" width="60" height="80" as="geometry" />
        </mxCell>
        <mxCell id="D_dh7wm_FY2fWaWjNn0V-198" value="" style="edgeStyle=orthogonalEdgeStyle;rounded=0;orthogonalLoop=1;jettySize=auto;html=1;" edge="1" parent="1" source="D_dh7wm_FY2fWaWjNn0V-195" target="D_dh7wm_FY2fWaWjNn0V-197">
          <mxGeometry relative="1" as="geometry" />
        </mxCell>
        <mxCell id="D_dh7wm_FY2fWaWjNn0V-195" value="you canceled &lt;br&gt;add&amp;nbsp;film" style="shape=parallelogram;perimeter=parallelogramPerimeter;whiteSpace=wrap;html=1;fixedSize=1;" vertex="1" parent="1">
          <mxGeometry x="1720" y="785" width="120" height="60" as="geometry" />
        </mxCell>
        <mxCell id="D_dh7wm_FY2fWaWjNn0V-197" value="E" style="ellipse;whiteSpace=wrap;html=1;" vertex="1" parent="1">
          <mxGeometry x="1760" y="915" width="40" height="35" as="geometry" />
        </mxCell>
        <mxCell id="D_dh7wm_FY2fWaWjNn0V-202" value="" style="edgeStyle=orthogonalEdgeStyle;rounded=0;orthogonalLoop=1;jettySize=auto;html=1;" edge="1" parent="1" source="D_dh7wm_FY2fWaWjNn0V-199" target="D_dh7wm_FY2fWaWjNn0V-201">
          <mxGeometry relative="1" as="geometry" />
        </mxCell>
        <mxCell id="D_dh7wm_FY2fWaWjNn0V-199" value="output&lt;br&gt;add film succes" style="shape=parallelogram;perimeter=parallelogramPerimeter;whiteSpace=wrap;html=1;fixedSize=1;" vertex="1" parent="1">
          <mxGeometry x="1920" y="1090" width="120" height="60" as="geometry" />
        </mxCell>
        <mxCell id="D_dh7wm_FY2fWaWjNn0V-201" value="E" style="ellipse;whiteSpace=wrap;html=1;" vertex="1" parent="1">
          <mxGeometry x="1955" y="1220" width="50" height="50" as="geometry" />
        </mxCell>
        <mxCell id="D_dh7wm_FY2fWaWjNn0V-203" style="edgeStyle=orthogonalEdgeStyle;rounded=0;orthogonalLoop=1;jettySize=auto;html=1;exitX=0.5;exitY=1;exitDx=0;exitDy=0;" edge="1" parent="1" source="D_dh7wm_FY2fWaWjNn0V-201" target="D_dh7wm_FY2fWaWjNn0V-201">
          <mxGeometry relative="1" as="geometry" />
        </mxCell>
        <mxCell id="D_dh7wm_FY2fWaWjNn0V-225" value="" style="edgeStyle=orthogonalEdgeStyle;rounded=0;orthogonalLoop=1;jettySize=auto;html=1;" edge="1" parent="1" source="D_dh7wm_FY2fWaWjNn0V-204" target="D_dh7wm_FY2fWaWjNn0V-180">
          <mxGeometry relative="1" as="geometry" />
        </mxCell>
        <mxCell id="D_dh7wm_FY2fWaWjNn0V-204" value="E" style="ellipse;whiteSpace=wrap;html=1;aspect=fixed;" vertex="1" parent="1">
          <mxGeometry x="1762.5" y="325" width="35" height="35" as="geometry" />
        </mxCell>
        <mxCell id="D_dh7wm_FY2fWaWjNn0V-210" value="" style="edgeStyle=orthogonalEdgeStyle;rounded=0;orthogonalLoop=1;jettySize=auto;html=1;" edge="1" parent="1" source="D_dh7wm_FY2fWaWjNn0V-206" target="D_dh7wm_FY2fWaWjNn0V-209">
          <mxGeometry relative="1" as="geometry" />
        </mxCell>
        <mxCell id="D_dh7wm_FY2fWaWjNn0V-211" value="true" style="edgeLabel;html=1;align=center;verticalAlign=middle;resizable=0;points=[];" vertex="1" connectable="0" parent="D_dh7wm_FY2fWaWjNn0V-210">
          <mxGeometry x="-0.1387" y="-2" relative="1" as="geometry">
            <mxPoint as="offset" />
          </mxGeometry>
        </mxCell>
        <mxCell id="D_dh7wm_FY2fWaWjNn0V-231" value="" style="edgeStyle=orthogonalEdgeStyle;rounded=0;orthogonalLoop=1;jettySize=auto;html=1;" edge="1" parent="1" source="D_dh7wm_FY2fWaWjNn0V-206" target="D_dh7wm_FY2fWaWjNn0V-230">
          <mxGeometry relative="1" as="geometry" />
        </mxCell>
        <mxCell id="D_dh7wm_FY2fWaWjNn0V-248" value="false" style="edgeLabel;html=1;align=center;verticalAlign=middle;resizable=0;points=[];" vertex="1" connectable="0" parent="D_dh7wm_FY2fWaWjNn0V-231">
          <mxGeometry x="-0.0606" relative="1" as="geometry">
            <mxPoint as="offset" />
          </mxGeometry>
        </mxCell>
        <mxCell id="D_dh7wm_FY2fWaWjNn0V-206" value="edit film" style="rhombus;whiteSpace=wrap;html=1;" vertex="1" parent="1">
          <mxGeometry x="2260" y="460" width="160" height="80" as="geometry" />
        </mxCell>
        <mxCell id="D_dh7wm_FY2fWaWjNn0V-215" value="" style="edgeStyle=orthogonalEdgeStyle;rounded=0;orthogonalLoop=1;jettySize=auto;html=1;" edge="1" parent="1" source="D_dh7wm_FY2fWaWjNn0V-209" target="D_dh7wm_FY2fWaWjNn0V-214">
          <mxGeometry relative="1" as="geometry" />
        </mxCell>
        <mxCell id="D_dh7wm_FY2fWaWjNn0V-209" value="input&lt;br&gt;new data film" style="shape=parallelogram;perimeter=parallelogramPerimeter;whiteSpace=wrap;html=1;fixedSize=1;" vertex="1" parent="1">
          <mxGeometry x="2250" y="630" width="180" height="60" as="geometry" />
        </mxCell>
        <mxCell id="D_dh7wm_FY2fWaWjNn0V-217" value="" style="edgeStyle=orthogonalEdgeStyle;rounded=0;orthogonalLoop=1;jettySize=auto;html=1;" edge="1" parent="1" source="D_dh7wm_FY2fWaWjNn0V-214" target="D_dh7wm_FY2fWaWjNn0V-216">
          <mxGeometry relative="1" as="geometry" />
        </mxCell>
        <mxCell id="D_dh7wm_FY2fWaWjNn0V-218" value="true" style="edgeLabel;html=1;align=center;verticalAlign=middle;resizable=0;points=[];" vertex="1" connectable="0" parent="D_dh7wm_FY2fWaWjNn0V-217">
          <mxGeometry x="-0.1584" y="1" relative="1" as="geometry">
            <mxPoint as="offset" />
          </mxGeometry>
        </mxCell>
        <mxCell id="D_dh7wm_FY2fWaWjNn0V-222" value="" style="edgeStyle=orthogonalEdgeStyle;rounded=0;orthogonalLoop=1;jettySize=auto;html=1;" edge="1" parent="1" source="D_dh7wm_FY2fWaWjNn0V-214" target="D_dh7wm_FY2fWaWjNn0V-221">
          <mxGeometry relative="1" as="geometry" />
        </mxCell>
        <mxCell id="D_dh7wm_FY2fWaWjNn0V-227" value="false" style="edgeLabel;html=1;align=center;verticalAlign=middle;resizable=0;points=[];" vertex="1" connectable="0" parent="D_dh7wm_FY2fWaWjNn0V-222">
          <mxGeometry x="-0.08" y="-1" relative="1" as="geometry">
            <mxPoint as="offset" />
          </mxGeometry>
        </mxCell>
        <mxCell id="D_dh7wm_FY2fWaWjNn0V-214" value="if edit" style="rhombus;whiteSpace=wrap;html=1;" vertex="1" parent="1">
          <mxGeometry x="2270" y="760" width="140" height="80" as="geometry" />
        </mxCell>
        <mxCell id="D_dh7wm_FY2fWaWjNn0V-220" value="" style="edgeStyle=orthogonalEdgeStyle;rounded=0;orthogonalLoop=1;jettySize=auto;html=1;" edge="1" parent="1" source="D_dh7wm_FY2fWaWjNn0V-216" target="D_dh7wm_FY2fWaWjNn0V-219">
          <mxGeometry relative="1" as="geometry" />
        </mxCell>
        <mxCell id="D_dh7wm_FY2fWaWjNn0V-216" value="films" style="shape=cylinder3;whiteSpace=wrap;html=1;boundedLbl=1;backgroundOutline=1;size=15;" vertex="1" parent="1">
          <mxGeometry x="2310" y="915" width="60" height="80" as="geometry" />
        </mxCell>
        <mxCell id="D_dh7wm_FY2fWaWjNn0V-229" value="" style="edgeStyle=orthogonalEdgeStyle;rounded=0;orthogonalLoop=1;jettySize=auto;html=1;" edge="1" parent="1" source="D_dh7wm_FY2fWaWjNn0V-219" target="D_dh7wm_FY2fWaWjNn0V-228">
          <mxGeometry relative="1" as="geometry" />
        </mxCell>
        <mxCell id="D_dh7wm_FY2fWaWjNn0V-219" value="ouput&lt;br&gt;edit film succes" style="shape=parallelogram;perimeter=parallelogramPerimeter;whiteSpace=wrap;html=1;fixedSize=1;" vertex="1" parent="1">
          <mxGeometry x="2280" y="1085" width="120" height="60" as="geometry" />
        </mxCell>
        <mxCell id="D_dh7wm_FY2fWaWjNn0V-224" value="" style="edgeStyle=orthogonalEdgeStyle;rounded=0;orthogonalLoop=1;jettySize=auto;html=1;" edge="1" parent="1" source="D_dh7wm_FY2fWaWjNn0V-221" target="D_dh7wm_FY2fWaWjNn0V-223">
          <mxGeometry relative="1" as="geometry" />
        </mxCell>
        <mxCell id="D_dh7wm_FY2fWaWjNn0V-221" value="you canceled &lt;br&gt;edit film" style="shape=parallelogram;perimeter=parallelogramPerimeter;whiteSpace=wrap;html=1;fixedSize=1;" vertex="1" parent="1">
          <mxGeometry x="2110" y="770" width="120" height="60" as="geometry" />
        </mxCell>
        <mxCell id="D_dh7wm_FY2fWaWjNn0V-223" value="E" style="ellipse;whiteSpace=wrap;html=1;" vertex="1" parent="1">
          <mxGeometry x="2150" y="900" width="40" height="40" as="geometry" />
        </mxCell>
        <mxCell id="D_dh7wm_FY2fWaWjNn0V-228" value="E" style="ellipse;whiteSpace=wrap;html=1;" vertex="1" parent="1">
          <mxGeometry x="2320" y="1220" width="40" height="40" as="geometry" />
        </mxCell>
        <mxCell id="D_dh7wm_FY2fWaWjNn0V-233" value="" style="edgeStyle=orthogonalEdgeStyle;rounded=0;orthogonalLoop=1;jettySize=auto;html=1;" edge="1" parent="1" source="D_dh7wm_FY2fWaWjNn0V-230" target="D_dh7wm_FY2fWaWjNn0V-232">
          <mxGeometry relative="1" as="geometry" />
        </mxCell>
        <mxCell id="D_dh7wm_FY2fWaWjNn0V-249" value="true" style="edgeLabel;html=1;align=center;verticalAlign=middle;resizable=0;points=[];" vertex="1" connectable="0" parent="D_dh7wm_FY2fWaWjNn0V-233">
          <mxGeometry x="-0.0563" relative="1" as="geometry">
            <mxPoint as="offset" />
          </mxGeometry>
        </mxCell>
        <mxCell id="D_dh7wm_FY2fWaWjNn0V-251" value="" style="edgeStyle=orthogonalEdgeStyle;rounded=0;orthogonalLoop=1;jettySize=auto;html=1;" edge="1" parent="1" source="D_dh7wm_FY2fWaWjNn0V-230" target="D_dh7wm_FY2fWaWjNn0V-250">
          <mxGeometry relative="1" as="geometry" />
        </mxCell>
        <mxCell id="D_dh7wm_FY2fWaWjNn0V-252" value="true" style="edgeLabel;html=1;align=center;verticalAlign=middle;resizable=0;points=[];" vertex="1" connectable="0" parent="D_dh7wm_FY2fWaWjNn0V-251">
          <mxGeometry x="-0.07" y="-5" relative="1" as="geometry">
            <mxPoint as="offset" />
          </mxGeometry>
        </mxCell>
        <mxCell id="D_dh7wm_FY2fWaWjNn0V-230" value="delete film" style="rhombus;whiteSpace=wrap;html=1;" vertex="1" parent="1">
          <mxGeometry x="2550" y="460" width="150" height="80" as="geometry" />
        </mxCell>
        <mxCell id="D_dh7wm_FY2fWaWjNn0V-235" value="" style="edgeStyle=orthogonalEdgeStyle;rounded=0;orthogonalLoop=1;jettySize=auto;html=1;" edge="1" parent="1" source="D_dh7wm_FY2fWaWjNn0V-232" target="D_dh7wm_FY2fWaWjNn0V-234">
          <mxGeometry relative="1" as="geometry" />
        </mxCell>
        <mxCell id="D_dh7wm_FY2fWaWjNn0V-232" value="input&lt;br&gt;select film you want to delete" style="shape=parallelogram;perimeter=parallelogramPerimeter;whiteSpace=wrap;html=1;fixedSize=1;" vertex="1" parent="1">
          <mxGeometry x="2530" y="630" width="190" height="70" as="geometry" />
        </mxCell>
        <mxCell id="D_dh7wm_FY2fWaWjNn0V-237" value="" style="edgeStyle=orthogonalEdgeStyle;rounded=0;orthogonalLoop=1;jettySize=auto;html=1;" edge="1" parent="1" source="D_dh7wm_FY2fWaWjNn0V-234" target="D_dh7wm_FY2fWaWjNn0V-236">
          <mxGeometry relative="1" as="geometry" />
        </mxCell>
        <mxCell id="D_dh7wm_FY2fWaWjNn0V-246" value="true" style="edgeLabel;html=1;align=center;verticalAlign=middle;resizable=0;points=[];" vertex="1" connectable="0" parent="D_dh7wm_FY2fWaWjNn0V-237">
          <mxGeometry x="-0.1441" y="-1" relative="1" as="geometry">
            <mxPoint as="offset" />
          </mxGeometry>
        </mxCell>
        <mxCell id="D_dh7wm_FY2fWaWjNn0V-243" value="" style="edgeStyle=orthogonalEdgeStyle;rounded=0;orthogonalLoop=1;jettySize=auto;html=1;" edge="1" parent="1" source="D_dh7wm_FY2fWaWjNn0V-234" target="D_dh7wm_FY2fWaWjNn0V-242">
          <mxGeometry relative="1" as="geometry" />
        </mxCell>
        <mxCell id="D_dh7wm_FY2fWaWjNn0V-247" value="false" style="edgeLabel;html=1;align=center;verticalAlign=middle;resizable=0;points=[];" vertex="1" connectable="0" parent="D_dh7wm_FY2fWaWjNn0V-243">
          <mxGeometry x="-0.1656" y="-2" relative="1" as="geometry">
            <mxPoint as="offset" />
          </mxGeometry>
        </mxCell>
        <mxCell id="D_dh7wm_FY2fWaWjNn0V-234" value="if delete" style="rhombus;whiteSpace=wrap;html=1;" vertex="1" parent="1">
          <mxGeometry x="2585" y="775" width="80" height="80" as="geometry" />
        </mxCell>
        <mxCell id="D_dh7wm_FY2fWaWjNn0V-239" value="" style="edgeStyle=orthogonalEdgeStyle;rounded=0;orthogonalLoop=1;jettySize=auto;html=1;" edge="1" parent="1" source="D_dh7wm_FY2fWaWjNn0V-236" target="D_dh7wm_FY2fWaWjNn0V-238">
          <mxGeometry relative="1" as="geometry" />
        </mxCell>
        <mxCell id="D_dh7wm_FY2fWaWjNn0V-236" value="films" style="shape=cylinder3;whiteSpace=wrap;html=1;boundedLbl=1;backgroundOutline=1;size=15;" vertex="1" parent="1">
          <mxGeometry x="2595" y="915" width="60" height="80" as="geometry" />
        </mxCell>
        <mxCell id="D_dh7wm_FY2fWaWjNn0V-241" value="" style="edgeStyle=orthogonalEdgeStyle;rounded=0;orthogonalLoop=1;jettySize=auto;html=1;" edge="1" parent="1" source="D_dh7wm_FY2fWaWjNn0V-238" target="D_dh7wm_FY2fWaWjNn0V-240">
          <mxGeometry relative="1" as="geometry" />
        </mxCell>
        <mxCell id="D_dh7wm_FY2fWaWjNn0V-238" value="output&lt;br&gt;delete film &lt;br&gt;succes" style="shape=parallelogram;perimeter=parallelogramPerimeter;whiteSpace=wrap;html=1;fixedSize=1;" vertex="1" parent="1">
          <mxGeometry x="2565" y="1085" width="120" height="60" as="geometry" />
        </mxCell>
        <mxCell id="D_dh7wm_FY2fWaWjNn0V-240" value="E" style="ellipse;whiteSpace=wrap;html=1;" vertex="1" parent="1">
          <mxGeometry x="2602.5" y="1215" width="45" height="45" as="geometry" />
        </mxCell>
        <mxCell id="D_dh7wm_FY2fWaWjNn0V-245" value="" style="edgeStyle=orthogonalEdgeStyle;rounded=0;orthogonalLoop=1;jettySize=auto;html=1;" edge="1" parent="1" source="D_dh7wm_FY2fWaWjNn0V-242" target="D_dh7wm_FY2fWaWjNn0V-244">
          <mxGeometry relative="1" as="geometry" />
        </mxCell>
        <mxCell id="D_dh7wm_FY2fWaWjNn0V-242" value="output&lt;br&gt;you canceled&lt;br&gt;delete film" style="shape=parallelogram;perimeter=parallelogramPerimeter;whiteSpace=wrap;html=1;fixedSize=1;" vertex="1" parent="1">
          <mxGeometry x="2420" y="785" width="120" height="60" as="geometry" />
        </mxCell>
        <mxCell id="D_dh7wm_FY2fWaWjNn0V-244" value="E" style="ellipse;whiteSpace=wrap;html=1;" vertex="1" parent="1">
          <mxGeometry x="2460" y="915" width="40" height="35" as="geometry" />
        </mxCell>
        <mxCell id="D_dh7wm_FY2fWaWjNn0V-254" value="" style="edgeStyle=orthogonalEdgeStyle;rounded=0;orthogonalLoop=1;jettySize=auto;html=1;" edge="1" parent="1" source="D_dh7wm_FY2fWaWjNn0V-250" target="D_dh7wm_FY2fWaWjNn0V-253">
          <mxGeometry relative="1" as="geometry" />
        </mxCell>
        <mxCell id="D_dh7wm_FY2fWaWjNn0V-255" value="true" style="edgeLabel;html=1;align=center;verticalAlign=middle;resizable=0;points=[];" vertex="1" connectable="0" parent="D_dh7wm_FY2fWaWjNn0V-254">
          <mxGeometry x="-0.3016" y="-2" relative="1" as="geometry">
            <mxPoint as="offset" />
          </mxGeometry>
        </mxCell>
        <mxCell id="D_dh7wm_FY2fWaWjNn0V-250" value="back" style="rhombus;whiteSpace=wrap;html=1;" vertex="1" parent="1">
          <mxGeometry x="2870" y="460" width="140" height="80" as="geometry" />
        </mxCell>
        <mxCell id="D_dh7wm_FY2fWaWjNn0V-253" value="C" style="ellipse;whiteSpace=wrap;html=1;" vertex="1" parent="1">
          <mxGeometry x="2915" y="620" width="50" height="50" as="geometry" />
        </mxCell>
        <mxCell id="D_dh7wm_FY2fWaWjNn0V-260" value="" style="edgeStyle=orthogonalEdgeStyle;rounded=0;orthogonalLoop=1;jettySize=auto;html=1;" edge="1" parent="1" source="D_dh7wm_FY2fWaWjNn0V-257" target="D_dh7wm_FY2fWaWjNn0V-259">
          <mxGeometry relative="1" as="geometry" />
        </mxCell>
        <mxCell id="D_dh7wm_FY2fWaWjNn0V-264" value="true" style="edgeLabel;html=1;align=center;verticalAlign=middle;resizable=0;points=[];" vertex="1" connectable="0" parent="D_dh7wm_FY2fWaWjNn0V-260">
          <mxGeometry x="-0.2536" y="2" relative="1" as="geometry">
            <mxPoint y="-1" as="offset" />
          </mxGeometry>
        </mxCell>
        <mxCell id="D_dh7wm_FY2fWaWjNn0V-257" value="LogOut" style="rhombus;whiteSpace=wrap;html=1;" vertex="1" parent="1">
          <mxGeometry x="3080" y="115" width="130" height="80" as="geometry" />
        </mxCell>
        <mxCell id="D_dh7wm_FY2fWaWjNn0V-262" value="" style="edgeStyle=orthogonalEdgeStyle;rounded=0;orthogonalLoop=1;jettySize=auto;html=1;" edge="1" parent="1" source="D_dh7wm_FY2fWaWjNn0V-259" target="D_dh7wm_FY2fWaWjNn0V-261">
          <mxGeometry relative="1" as="geometry" />
        </mxCell>
        <mxCell id="D_dh7wm_FY2fWaWjNn0V-259" value="remove Login and role data&lt;br&gt;in Localstorage&amp;nbsp;" style="whiteSpace=wrap;html=1;" vertex="1" parent="1">
          <mxGeometry x="3040" y="285" width="210" height="85" as="geometry" />
        </mxCell>
        <mxCell id="D_dh7wm_FY2fWaWjNn0V-261" value="J" style="ellipse;whiteSpace=wrap;html=1;" vertex="1" parent="1">
          <mxGeometry x="3117.5" y="430" width="55" height="50" as="geometry" />
        </mxCell>
        <mxCell id="D_dh7wm_FY2fWaWjNn0V-265" value="F" style="ellipse;whiteSpace=wrap;html=1;" vertex="1" parent="1">
          <mxGeometry x="612.5" y="-300" width="40" height="40" as="geometry" />
        </mxCell>
        <mxCell id="D_dh7wm_FY2fWaWjNn0V-270" value="" style="edgeStyle=orthogonalEdgeStyle;rounded=0;orthogonalLoop=1;jettySize=auto;html=1;" edge="1" parent="1" source="D_dh7wm_FY2fWaWjNn0V-267" target="D_dh7wm_FY2fWaWjNn0V-269">
          <mxGeometry relative="1" as="geometry" />
        </mxCell>
        <mxCell id="D_dh7wm_FY2fWaWjNn0V-267" value="F" style="ellipse;whiteSpace=wrap;html=1;aspect=fixed;" vertex="1" parent="1">
          <mxGeometry x="290" y="1340" width="40" height="40" as="geometry" />
        </mxCell>
        <mxCell id="dnEN6WmRxGEVYGNKKrur-2" value="" style="edgeStyle=orthogonalEdgeStyle;rounded=0;orthogonalLoop=1;jettySize=auto;html=1;" edge="1" parent="1" source="D_dh7wm_FY2fWaWjNn0V-269" target="dnEN6WmRxGEVYGNKKrur-1">
          <mxGeometry relative="1" as="geometry" />
        </mxCell>
        <mxCell id="dnEN6WmRxGEVYGNKKrur-5" value="true" style="edgeLabel;html=1;align=center;verticalAlign=middle;resizable=0;points=[];" connectable="0" vertex="1" parent="dnEN6WmRxGEVYGNKKrur-2">
          <mxGeometry x="-0.2345" y="1" relative="1" as="geometry">
            <mxPoint as="offset" />
          </mxGeometry>
        </mxCell>
        <mxCell id="D_dh7wm_FY2fWaWjNn0V-269" value="if role == user" style="rhombus;whiteSpace=wrap;html=1;" vertex="1" parent="1">
          <mxGeometry x="410" y="1320" width="130" height="80" as="geometry" />
        </mxCell>
        <mxCell id="D_dh7wm_FY2fWaWjNn0V-278" value="" style="edgeStyle=orthogonalEdgeStyle;rounded=0;orthogonalLoop=1;jettySize=auto;html=1;" edge="1" parent="1" source="D_dh7wm_FY2fWaWjNn0V-276" target="D_dh7wm_FY2fWaWjNn0V-52">
          <mxGeometry relative="1" as="geometry" />
        </mxCell>
        <mxCell id="D_dh7wm_FY2fWaWjNn0V-276" value="check the role of the&lt;br&gt;username and&amp;nbsp;&lt;br&gt;password" style="rounded=0;whiteSpace=wrap;html=1;" vertex="1" parent="1">
          <mxGeometry x="355" y="-450" width="120" height="60" as="geometry" />
        </mxCell>
        <mxCell id="dnEN6WmRxGEVYGNKKrur-4" value="" style="edgeStyle=orthogonalEdgeStyle;rounded=0;orthogonalLoop=1;jettySize=auto;html=1;" edge="1" parent="1" source="dnEN6WmRxGEVYGNKKrur-1" target="dnEN6WmRxGEVYGNKKrur-3">
          <mxGeometry relative="1" as="geometry" />
        </mxCell>
        <mxCell id="dnEN6WmRxGEVYGNKKrur-1" value="save login and role&lt;br&gt;data to localstorage" style="whiteSpace=wrap;html=1;" vertex="1" parent="1">
          <mxGeometry x="415" y="1490" width="120" height="60" as="geometry" />
        </mxCell>
        <mxCell id="dnEN6WmRxGEVYGNKKrur-7" value="" style="edgeStyle=orthogonalEdgeStyle;rounded=0;orthogonalLoop=1;jettySize=auto;html=1;" edge="1" parent="1" source="dnEN6WmRxGEVYGNKKrur-3" target="dnEN6WmRxGEVYGNKKrur-6">
          <mxGeometry relative="1" as="geometry" />
        </mxCell>
        <mxCell id="dnEN6WmRxGEVYGNKKrur-3" value="output&lt;br&gt;home page display&lt;div&gt;Show trending films&amp;nbsp;&lt;br&gt;this year&lt;/div&gt;" style="shape=parallelogram;perimeter=parallelogramPerimeter;whiteSpace=wrap;html=1;fixedSize=1;" vertex="1" parent="1">
          <mxGeometry x="390" y="1630" width="170" height="60" as="geometry" />
        </mxCell>
        <mxCell id="dnEN6WmRxGEVYGNKKrur-9" value="" style="edgeStyle=orthogonalEdgeStyle;rounded=0;orthogonalLoop=1;jettySize=auto;html=1;" edge="1" parent="1" source="dnEN6WmRxGEVYGNKKrur-6" target="dnEN6WmRxGEVYGNKKrur-8">
          <mxGeometry relative="1" as="geometry" />
        </mxCell>
        <mxCell id="dnEN6WmRxGEVYGNKKrur-6" value="input&lt;br&gt;fitur user&lt;div&gt;[1]. Home page&lt;br&gt;[2]. List film page&lt;div&gt;[3]. Genre List&lt;br&gt;[4]. Profile&lt;/div&gt;&lt;/div&gt;" style="shape=parallelogram;perimeter=parallelogramPerimeter;whiteSpace=wrap;html=1;fixedSize=1;" vertex="1" parent="1">
          <mxGeometry x="390" y="1770" width="170" height="120" as="geometry" />
        </mxCell>
        <mxCell id="dnEN6WmRxGEVYGNKKrur-11" value="" style="edgeStyle=orthogonalEdgeStyle;rounded=0;orthogonalLoop=1;jettySize=auto;html=1;" edge="1" parent="1" source="dnEN6WmRxGEVYGNKKrur-8" target="dnEN6WmRxGEVYGNKKrur-10">
          <mxGeometry relative="1" as="geometry" />
        </mxCell>
        <mxCell id="dnEN6WmRxGEVYGNKKrur-14" value="true" style="edgeLabel;html=1;align=center;verticalAlign=middle;resizable=0;points=[];" connectable="0" vertex="1" parent="dnEN6WmRxGEVYGNKKrur-11">
          <mxGeometry x="-0.1375" relative="1" as="geometry">
            <mxPoint y="-1" as="offset" />
          </mxGeometry>
        </mxCell>
        <mxCell id="dnEN6WmRxGEVYGNKKrur-16" value="" style="edgeStyle=orthogonalEdgeStyle;rounded=0;orthogonalLoop=1;jettySize=auto;html=1;" edge="1" parent="1" source="dnEN6WmRxGEVYGNKKrur-8" target="dnEN6WmRxGEVYGNKKrur-15">
          <mxGeometry relative="1" as="geometry" />
        </mxCell>
        <mxCell id="dnEN6WmRxGEVYGNKKrur-28" value="false" style="edgeLabel;html=1;align=center;verticalAlign=middle;resizable=0;points=[];" connectable="0" vertex="1" parent="dnEN6WmRxGEVYGNKKrur-16">
          <mxGeometry x="-0.0522" y="-1" relative="1" as="geometry">
            <mxPoint x="-1" as="offset" />
          </mxGeometry>
        </mxCell>
        <mxCell id="dnEN6WmRxGEVYGNKKrur-8" value="Home page" style="rhombus;whiteSpace=wrap;html=1;" vertex="1" parent="1">
          <mxGeometry x="400" y="1990" width="150" height="80" as="geometry" />
        </mxCell>
        <mxCell id="dnEN6WmRxGEVYGNKKrur-10" value="G" style="ellipse;whiteSpace=wrap;html=1;" vertex="1" parent="1">
          <mxGeometry x="452.5" y="2150" width="45" height="50" as="geometry" />
        </mxCell>
        <mxCell id="dnEN6WmRxGEVYGNKKrur-111" style="edgeStyle=orthogonalEdgeStyle;rounded=0;orthogonalLoop=1;jettySize=auto;html=1;entryX=0;entryY=0.5;entryDx=0;entryDy=0;" edge="1" parent="1" source="dnEN6WmRxGEVYGNKKrur-12" target="dnEN6WmRxGEVYGNKKrur-6">
          <mxGeometry relative="1" as="geometry" />
        </mxCell>
        <mxCell id="dnEN6WmRxGEVYGNKKrur-12" value="G" style="ellipse;whiteSpace=wrap;html=1;aspect=fixed;" vertex="1" parent="1">
          <mxGeometry x="220" y="1805" width="50" height="50" as="geometry" />
        </mxCell>
        <mxCell id="dnEN6WmRxGEVYGNKKrur-18" value="" style="edgeStyle=orthogonalEdgeStyle;rounded=0;orthogonalLoop=1;jettySize=auto;html=1;" edge="1" parent="1" source="dnEN6WmRxGEVYGNKKrur-15" target="dnEN6WmRxGEVYGNKKrur-17">
          <mxGeometry relative="1" as="geometry" />
        </mxCell>
        <mxCell id="dnEN6WmRxGEVYGNKKrur-19" value="true" style="edgeLabel;html=1;align=center;verticalAlign=middle;resizable=0;points=[];" connectable="0" vertex="1" parent="dnEN6WmRxGEVYGNKKrur-18">
          <mxGeometry x="-0.2299" y="2" relative="1" as="geometry">
            <mxPoint as="offset" />
          </mxGeometry>
        </mxCell>
        <mxCell id="dnEN6WmRxGEVYGNKKrur-52" value="" style="edgeStyle=orthogonalEdgeStyle;rounded=0;orthogonalLoop=1;jettySize=auto;html=1;" edge="1" parent="1" source="dnEN6WmRxGEVYGNKKrur-15" target="dnEN6WmRxGEVYGNKKrur-51">
          <mxGeometry relative="1" as="geometry" />
        </mxCell>
        <mxCell id="dnEN6WmRxGEVYGNKKrur-15" value="List Film" style="rhombus;whiteSpace=wrap;html=1;" vertex="1" parent="1">
          <mxGeometry x="665" y="1990" width="155" height="80" as="geometry" />
        </mxCell>
        <mxCell id="dnEN6WmRxGEVYGNKKrur-21" value="" style="edgeStyle=orthogonalEdgeStyle;rounded=0;orthogonalLoop=1;jettySize=auto;html=1;" edge="1" parent="1" source="dnEN6WmRxGEVYGNKKrur-17" target="dnEN6WmRxGEVYGNKKrur-20">
          <mxGeometry relative="1" as="geometry" />
        </mxCell>
        <mxCell id="dnEN6WmRxGEVYGNKKrur-17" value="output&lt;br&gt;Show all Movies or films" style="shape=parallelogram;perimeter=parallelogramPerimeter;whiteSpace=wrap;html=1;fixedSize=1;" vertex="1" parent="1">
          <mxGeometry x="647.5" y="2160" width="190" height="60" as="geometry" />
        </mxCell>
        <mxCell id="dnEN6WmRxGEVYGNKKrur-23" value="" style="edgeStyle=orthogonalEdgeStyle;rounded=0;orthogonalLoop=1;jettySize=auto;html=1;" edge="1" parent="1" source="dnEN6WmRxGEVYGNKKrur-20" target="dnEN6WmRxGEVYGNKKrur-22">
          <mxGeometry relative="1" as="geometry" />
        </mxCell>
        <mxCell id="dnEN6WmRxGEVYGNKKrur-20" value="input&lt;br&gt;&lt;br&gt;[1]. Select a film to watch&lt;br&gt;[2]. select a film to add to Favorites&lt;br&gt;[3]. delete film from favorites&lt;br&gt;[4]. back" style="shape=parallelogram;perimeter=parallelogramPerimeter;whiteSpace=wrap;html=1;fixedSize=1;" vertex="1" parent="1">
          <mxGeometry x="626.25" y="2290" width="232.5" height="100" as="geometry" />
        </mxCell>
        <mxCell id="dnEN6WmRxGEVYGNKKrur-25" value="" style="edgeStyle=orthogonalEdgeStyle;rounded=0;orthogonalLoop=1;jettySize=auto;html=1;" edge="1" parent="1" source="dnEN6WmRxGEVYGNKKrur-22" target="dnEN6WmRxGEVYGNKKrur-24">
          <mxGeometry relative="1" as="geometry" />
        </mxCell>
        <mxCell id="dnEN6WmRxGEVYGNKKrur-60" value="true" style="edgeLabel;html=1;align=center;verticalAlign=middle;resizable=0;points=[];" connectable="0" vertex="1" parent="dnEN6WmRxGEVYGNKKrur-25">
          <mxGeometry x="-0.3793" y="-1" relative="1" as="geometry">
            <mxPoint as="offset" />
          </mxGeometry>
        </mxCell>
        <mxCell id="dnEN6WmRxGEVYGNKKrur-56" value="" style="edgeStyle=orthogonalEdgeStyle;rounded=0;orthogonalLoop=1;jettySize=auto;html=1;" edge="1" parent="1" source="dnEN6WmRxGEVYGNKKrur-22" target="dnEN6WmRxGEVYGNKKrur-55">
          <mxGeometry relative="1" as="geometry" />
        </mxCell>
        <mxCell id="dnEN6WmRxGEVYGNKKrur-59" value="false" style="edgeLabel;html=1;align=center;verticalAlign=middle;resizable=0;points=[];" connectable="0" vertex="1" parent="dnEN6WmRxGEVYGNKKrur-56">
          <mxGeometry x="0.0007" relative="1" as="geometry">
            <mxPoint as="offset" />
          </mxGeometry>
        </mxCell>
        <mxCell id="dnEN6WmRxGEVYGNKKrur-22" value="Watch Film" style="rhombus;whiteSpace=wrap;html=1;" vertex="1" parent="1">
          <mxGeometry x="686.25" y="2430" width="112.5" height="80" as="geometry" />
        </mxCell>
        <mxCell id="dnEN6WmRxGEVYGNKKrur-30" value="" style="edgeStyle=orthogonalEdgeStyle;rounded=0;orthogonalLoop=1;jettySize=auto;html=1;" edge="1" parent="1" source="dnEN6WmRxGEVYGNKKrur-24" target="dnEN6WmRxGEVYGNKKrur-29">
          <mxGeometry relative="1" as="geometry" />
        </mxCell>
        <mxCell id="dnEN6WmRxGEVYGNKKrur-24" value="Input&lt;br&gt;[1]. play Button&lt;br&gt;[2]. back" style="shape=parallelogram;perimeter=parallelogramPerimeter;whiteSpace=wrap;html=1;fixedSize=1;" vertex="1" parent="1">
          <mxGeometry x="682.5" y="2600" width="120" height="60" as="geometry" />
        </mxCell>
        <mxCell id="dnEN6WmRxGEVYGNKKrur-32" value="" style="edgeStyle=orthogonalEdgeStyle;rounded=0;orthogonalLoop=1;jettySize=auto;html=1;" edge="1" parent="1" source="dnEN6WmRxGEVYGNKKrur-29" target="dnEN6WmRxGEVYGNKKrur-31">
          <mxGeometry relative="1" as="geometry" />
        </mxCell>
        <mxCell id="dnEN6WmRxGEVYGNKKrur-36" value="true" style="edgeLabel;html=1;align=center;verticalAlign=middle;resizable=0;points=[];" connectable="0" vertex="1" parent="dnEN6WmRxGEVYGNKKrur-32">
          <mxGeometry x="-0.2752" y="1" relative="1" as="geometry">
            <mxPoint as="offset" />
          </mxGeometry>
        </mxCell>
        <mxCell id="dnEN6WmRxGEVYGNKKrur-43" value="" style="edgeStyle=orthogonalEdgeStyle;rounded=0;orthogonalLoop=1;jettySize=auto;html=1;" edge="1" parent="1" source="dnEN6WmRxGEVYGNKKrur-29" target="dnEN6WmRxGEVYGNKKrur-42">
          <mxGeometry relative="1" as="geometry" />
        </mxCell>
        <mxCell id="dnEN6WmRxGEVYGNKKrur-44" value="false" style="edgeLabel;html=1;align=center;verticalAlign=middle;resizable=0;points=[];" connectable="0" vertex="1" parent="dnEN6WmRxGEVYGNKKrur-43">
          <mxGeometry x="-0.0188" y="1" relative="1" as="geometry">
            <mxPoint as="offset" />
          </mxGeometry>
        </mxCell>
        <mxCell id="dnEN6WmRxGEVYGNKKrur-29" value="play button" style="rhombus;whiteSpace=wrap;html=1;" vertex="1" parent="1">
          <mxGeometry x="686.25" y="2730" width="112.5" height="80" as="geometry" />
        </mxCell>
        <mxCell id="dnEN6WmRxGEVYGNKKrur-35" style="edgeStyle=orthogonalEdgeStyle;rounded=0;orthogonalLoop=1;jettySize=auto;html=1;" edge="1" parent="1" source="dnEN6WmRxGEVYGNKKrur-31" target="dnEN6WmRxGEVYGNKKrur-24">
          <mxGeometry relative="1" as="geometry">
            <Array as="points">
              <mxPoint x="600" y="2930" />
              <mxPoint x="600" y="2630" />
            </Array>
          </mxGeometry>
        </mxCell>
        <mxCell id="dnEN6WmRxGEVYGNKKrur-31" value="output&lt;br&gt;play film" style="shape=parallelogram;perimeter=parallelogramPerimeter;whiteSpace=wrap;html=1;fixedSize=1;" vertex="1" parent="1">
          <mxGeometry x="682.5" y="2900" width="120" height="60" as="geometry" />
        </mxCell>
        <mxCell id="dnEN6WmRxGEVYGNKKrur-47" value="" style="edgeStyle=orthogonalEdgeStyle;rounded=0;orthogonalLoop=1;jettySize=auto;html=1;" edge="1" parent="1" source="dnEN6WmRxGEVYGNKKrur-42" target="dnEN6WmRxGEVYGNKKrur-46">
          <mxGeometry relative="1" as="geometry" />
        </mxCell>
        <mxCell id="dnEN6WmRxGEVYGNKKrur-48" value="true" style="edgeLabel;html=1;align=center;verticalAlign=middle;resizable=0;points=[];" connectable="0" vertex="1" parent="dnEN6WmRxGEVYGNKKrur-47">
          <mxGeometry x="-0.08" y="2" relative="1" as="geometry">
            <mxPoint as="offset" />
          </mxGeometry>
        </mxCell>
        <mxCell id="dnEN6WmRxGEVYGNKKrur-42" value="back" style="rhombus;whiteSpace=wrap;html=1;" vertex="1" parent="1">
          <mxGeometry x="880" y="2730" width="100" height="80" as="geometry" />
        </mxCell>
        <mxCell id="dnEN6WmRxGEVYGNKKrur-46" value="H" style="ellipse;whiteSpace=wrap;html=1;" vertex="1" parent="1">
          <mxGeometry x="910" y="2890" width="40" height="40" as="geometry" />
        </mxCell>
        <mxCell id="dnEN6WmRxGEVYGNKKrur-50" value="" style="edgeStyle=orthogonalEdgeStyle;rounded=0;orthogonalLoop=1;jettySize=auto;html=1;" edge="1" parent="1" source="dnEN6WmRxGEVYGNKKrur-49" target="dnEN6WmRxGEVYGNKKrur-20">
          <mxGeometry relative="1" as="geometry" />
        </mxCell>
        <mxCell id="dnEN6WmRxGEVYGNKKrur-49" value="H" style="ellipse;whiteSpace=wrap;html=1;aspect=fixed;" vertex="1" parent="1">
          <mxGeometry x="530" y="2320" width="40" height="40" as="geometry" />
        </mxCell>
        <mxCell id="dnEN6WmRxGEVYGNKKrur-54" value="" style="edgeStyle=orthogonalEdgeStyle;rounded=0;orthogonalLoop=1;jettySize=auto;html=1;" edge="1" parent="1" source="dnEN6WmRxGEVYGNKKrur-51" target="dnEN6WmRxGEVYGNKKrur-53">
          <mxGeometry relative="1" as="geometry" />
        </mxCell>
        <mxCell id="dnEN6WmRxGEVYGNKKrur-112" value="true" style="edgeLabel;html=1;align=center;verticalAlign=middle;resizable=0;points=[];" connectable="0" vertex="1" parent="dnEN6WmRxGEVYGNKKrur-54">
          <mxGeometry x="-0.0593" y="2" relative="1" as="geometry">
            <mxPoint as="offset" />
          </mxGeometry>
        </mxCell>
        <mxCell id="dnEN6WmRxGEVYGNKKrur-115" value="" style="edgeStyle=orthogonalEdgeStyle;rounded=0;orthogonalLoop=1;jettySize=auto;html=1;" edge="1" parent="1" source="dnEN6WmRxGEVYGNKKrur-51" target="dnEN6WmRxGEVYGNKKrur-114">
          <mxGeometry relative="1" as="geometry" />
        </mxCell>
        <mxCell id="dnEN6WmRxGEVYGNKKrur-116" value="false" style="edgeLabel;html=1;align=center;verticalAlign=middle;resizable=0;points=[];" connectable="0" vertex="1" parent="dnEN6WmRxGEVYGNKKrur-115">
          <mxGeometry x="0.0886" y="-3" relative="1" as="geometry">
            <mxPoint as="offset" />
          </mxGeometry>
        </mxCell>
        <mxCell id="dnEN6WmRxGEVYGNKKrur-51" value="List Genre" style="rhombus;whiteSpace=wrap;html=1;" vertex="1" parent="1">
          <mxGeometry x="1805" y="1990" width="150" height="80" as="geometry" />
        </mxCell>
        <mxCell id="dnEN6WmRxGEVYGNKKrur-83" value="" style="edgeStyle=orthogonalEdgeStyle;rounded=0;orthogonalLoop=1;jettySize=auto;html=1;" edge="1" parent="1" source="dnEN6WmRxGEVYGNKKrur-53" target="dnEN6WmRxGEVYGNKKrur-82">
          <mxGeometry relative="1" as="geometry" />
        </mxCell>
        <mxCell id="dnEN6WmRxGEVYGNKKrur-53" value="output&lt;br&gt;show all genre&lt;br&gt;&amp;amp; film" style="shape=parallelogram;perimeter=parallelogramPerimeter;whiteSpace=wrap;html=1;fixedSize=1;" vertex="1" parent="1">
          <mxGeometry x="1797.5" y="2160" width="165" height="60" as="geometry" />
        </mxCell>
        <mxCell id="dnEN6WmRxGEVYGNKKrur-58" value="" style="edgeStyle=orthogonalEdgeStyle;rounded=0;orthogonalLoop=1;jettySize=auto;html=1;" edge="1" parent="1" source="dnEN6WmRxGEVYGNKKrur-55" target="dnEN6WmRxGEVYGNKKrur-57">
          <mxGeometry relative="1" as="geometry" />
        </mxCell>
        <mxCell id="dnEN6WmRxGEVYGNKKrur-61" value="true" style="edgeLabel;html=1;align=center;verticalAlign=middle;resizable=0;points=[];" connectable="0" vertex="1" parent="dnEN6WmRxGEVYGNKKrur-58">
          <mxGeometry x="-0.299" y="-1" relative="1" as="geometry">
            <mxPoint as="offset" />
          </mxGeometry>
        </mxCell>
        <mxCell id="dnEN6WmRxGEVYGNKKrur-67" value="" style="edgeStyle=orthogonalEdgeStyle;rounded=0;orthogonalLoop=1;jettySize=auto;html=1;" edge="1" parent="1" source="dnEN6WmRxGEVYGNKKrur-55" target="dnEN6WmRxGEVYGNKKrur-66">
          <mxGeometry relative="1" as="geometry" />
        </mxCell>
        <mxCell id="dnEN6WmRxGEVYGNKKrur-78" value="false" style="edgeLabel;html=1;align=center;verticalAlign=middle;resizable=0;points=[];" connectable="0" vertex="1" parent="dnEN6WmRxGEVYGNKKrur-67">
          <mxGeometry x="0.1095" y="1" relative="1" as="geometry">
            <mxPoint x="-1" as="offset" />
          </mxGeometry>
        </mxCell>
        <mxCell id="dnEN6WmRxGEVYGNKKrur-55" value="add to Favorites" style="rhombus;whiteSpace=wrap;html=1;" vertex="1" parent="1">
          <mxGeometry x="1030" y="2430" width="130" height="80" as="geometry" />
        </mxCell>
        <mxCell id="dnEN6WmRxGEVYGNKKrur-63" value="" style="edgeStyle=orthogonalEdgeStyle;rounded=0;orthogonalLoop=1;jettySize=auto;html=1;" edge="1" parent="1" source="dnEN6WmRxGEVYGNKKrur-57" target="dnEN6WmRxGEVYGNKKrur-62">
          <mxGeometry relative="1" as="geometry" />
        </mxCell>
        <mxCell id="dnEN6WmRxGEVYGNKKrur-57" value="input&lt;br&gt;select film to&amp;nbsp;&lt;br&gt;add favorites" style="shape=parallelogram;perimeter=parallelogramPerimeter;whiteSpace=wrap;html=1;fixedSize=1;" vertex="1" parent="1">
          <mxGeometry x="1035" y="2600" width="120" height="60" as="geometry" />
        </mxCell>
        <mxCell id="dnEN6WmRxGEVYGNKKrur-65" value="" style="edgeStyle=orthogonalEdgeStyle;rounded=0;orthogonalLoop=1;jettySize=auto;html=1;" edge="1" parent="1" source="dnEN6WmRxGEVYGNKKrur-62" target="dnEN6WmRxGEVYGNKKrur-64">
          <mxGeometry relative="1" as="geometry" />
        </mxCell>
        <mxCell id="dnEN6WmRxGEVYGNKKrur-62" value="save favorites film&amp;nbsp;&lt;br&gt;data to localstorage" style="whiteSpace=wrap;html=1;" vertex="1" parent="1">
          <mxGeometry x="1035" y="2740" width="120" height="60" as="geometry" />
        </mxCell>
        <mxCell id="dnEN6WmRxGEVYGNKKrur-64" value="H" style="ellipse;whiteSpace=wrap;html=1;" vertex="1" parent="1">
          <mxGeometry x="1076.25" y="2870" width="37.5" height="40" as="geometry" />
        </mxCell>
        <mxCell id="dnEN6WmRxGEVYGNKKrur-69" value="" style="edgeStyle=orthogonalEdgeStyle;rounded=0;orthogonalLoop=1;jettySize=auto;html=1;" edge="1" parent="1" source="dnEN6WmRxGEVYGNKKrur-66" target="dnEN6WmRxGEVYGNKKrur-68">
          <mxGeometry relative="1" as="geometry" />
        </mxCell>
        <mxCell id="dnEN6WmRxGEVYGNKKrur-74" value="true" style="edgeLabel;html=1;align=center;verticalAlign=middle;resizable=0;points=[];" connectable="0" vertex="1" parent="dnEN6WmRxGEVYGNKKrur-69">
          <mxGeometry x="-0.1237" y="1" relative="1" as="geometry">
            <mxPoint as="offset" />
          </mxGeometry>
        </mxCell>
        <mxCell id="dnEN6WmRxGEVYGNKKrur-76" value="" style="edgeStyle=orthogonalEdgeStyle;rounded=0;orthogonalLoop=1;jettySize=auto;html=1;" edge="1" parent="1" source="dnEN6WmRxGEVYGNKKrur-66" target="dnEN6WmRxGEVYGNKKrur-75">
          <mxGeometry relative="1" as="geometry" />
        </mxCell>
        <mxCell id="dnEN6WmRxGEVYGNKKrur-77" value="false" style="edgeLabel;html=1;align=center;verticalAlign=middle;resizable=0;points=[];" connectable="0" vertex="1" parent="dnEN6WmRxGEVYGNKKrur-76">
          <mxGeometry x="-0.1455" y="5" relative="1" as="geometry">
            <mxPoint x="-1" as="offset" />
          </mxGeometry>
        </mxCell>
        <mxCell id="dnEN6WmRxGEVYGNKKrur-66" value="delete film from favorites" style="rhombus;whiteSpace=wrap;html=1;" vertex="1" parent="1">
          <mxGeometry x="1265" y="2430" width="155" height="80" as="geometry" />
        </mxCell>
        <mxCell id="dnEN6WmRxGEVYGNKKrur-71" value="" style="edgeStyle=orthogonalEdgeStyle;rounded=0;orthogonalLoop=1;jettySize=auto;html=1;" edge="1" parent="1" source="dnEN6WmRxGEVYGNKKrur-68" target="dnEN6WmRxGEVYGNKKrur-70">
          <mxGeometry relative="1" as="geometry" />
        </mxCell>
        <mxCell id="dnEN6WmRxGEVYGNKKrur-68" value="input&lt;br&gt;select film to delete&lt;br&gt;from favorites&lt;div&gt;&lt;br/&gt;&lt;/div&gt;" style="shape=parallelogram;perimeter=parallelogramPerimeter;whiteSpace=wrap;html=1;fixedSize=1;" vertex="1" parent="1">
          <mxGeometry x="1276.25" y="2600" width="132.5" height="60" as="geometry" />
        </mxCell>
        <mxCell id="dnEN6WmRxGEVYGNKKrur-73" value="" style="edgeStyle=orthogonalEdgeStyle;rounded=0;orthogonalLoop=1;jettySize=auto;html=1;" edge="1" parent="1" source="dnEN6WmRxGEVYGNKKrur-70" target="dnEN6WmRxGEVYGNKKrur-72">
          <mxGeometry relative="1" as="geometry" />
        </mxCell>
        <mxCell id="dnEN6WmRxGEVYGNKKrur-70" value="save favorites data&lt;br&gt;to localstorage" style="whiteSpace=wrap;html=1;" vertex="1" parent="1">
          <mxGeometry x="1282.5" y="2740" width="120" height="60" as="geometry" />
        </mxCell>
        <mxCell id="dnEN6WmRxGEVYGNKKrur-72" value="H" style="ellipse;whiteSpace=wrap;html=1;" vertex="1" parent="1">
          <mxGeometry x="1323.75" y="2870" width="37.5" height="40" as="geometry" />
        </mxCell>
        <mxCell id="dnEN6WmRxGEVYGNKKrur-80" value="" style="edgeStyle=orthogonalEdgeStyle;rounded=0;orthogonalLoop=1;jettySize=auto;html=1;" edge="1" parent="1" source="dnEN6WmRxGEVYGNKKrur-75" target="dnEN6WmRxGEVYGNKKrur-79">
          <mxGeometry relative="1" as="geometry" />
        </mxCell>
        <mxCell id="dnEN6WmRxGEVYGNKKrur-81" value="true" style="edgeLabel;html=1;align=center;verticalAlign=middle;resizable=0;points=[];" connectable="0" vertex="1" parent="dnEN6WmRxGEVYGNKKrur-80">
          <mxGeometry x="-0.1357" y="-1" relative="1" as="geometry">
            <mxPoint as="offset" />
          </mxGeometry>
        </mxCell>
        <mxCell id="dnEN6WmRxGEVYGNKKrur-75" value="back" style="rhombus;whiteSpace=wrap;html=1;" vertex="1" parent="1">
          <mxGeometry x="1530" y="2430" width="124" height="80" as="geometry" />
        </mxCell>
        <mxCell id="dnEN6WmRxGEVYGNKKrur-79" value="G" style="ellipse;whiteSpace=wrap;html=1;" vertex="1" parent="1">
          <mxGeometry x="1573" y="2590" width="38" height="40" as="geometry" />
        </mxCell>
        <mxCell id="dnEN6WmRxGEVYGNKKrur-85" value="" style="edgeStyle=orthogonalEdgeStyle;rounded=0;orthogonalLoop=1;jettySize=auto;html=1;" edge="1" parent="1" source="dnEN6WmRxGEVYGNKKrur-82" target="dnEN6WmRxGEVYGNKKrur-84">
          <mxGeometry relative="1" as="geometry" />
        </mxCell>
        <mxCell id="dnEN6WmRxGEVYGNKKrur-82" value="input&lt;br&gt;[1]. select a film to watch&lt;br&gt;[2]. back" style="shape=parallelogram;perimeter=parallelogramPerimeter;whiteSpace=wrap;html=1;fixedSize=1;" vertex="1" parent="1">
          <mxGeometry x="1780" y="2300" width="200" height="60" as="geometry" />
        </mxCell>
        <mxCell id="dnEN6WmRxGEVYGNKKrur-87" value="" style="edgeStyle=orthogonalEdgeStyle;rounded=0;orthogonalLoop=1;jettySize=auto;html=1;" edge="1" parent="1" source="dnEN6WmRxGEVYGNKKrur-84" target="dnEN6WmRxGEVYGNKKrur-86">
          <mxGeometry relative="1" as="geometry" />
        </mxCell>
        <mxCell id="dnEN6WmRxGEVYGNKKrur-88" value="true" style="edgeLabel;html=1;align=center;verticalAlign=middle;resizable=0;points=[];" connectable="0" vertex="1" parent="dnEN6WmRxGEVYGNKKrur-87">
          <mxGeometry x="-0.3" y="1" relative="1" as="geometry">
            <mxPoint as="offset" />
          </mxGeometry>
        </mxCell>
        <mxCell id="dnEN6WmRxGEVYGNKKrur-107" value="" style="edgeStyle=orthogonalEdgeStyle;rounded=0;orthogonalLoop=1;jettySize=auto;html=1;" edge="1" parent="1" source="dnEN6WmRxGEVYGNKKrur-84" target="dnEN6WmRxGEVYGNKKrur-106">
          <mxGeometry relative="1" as="geometry" />
        </mxCell>
        <mxCell id="dnEN6WmRxGEVYGNKKrur-108" value="false" style="edgeLabel;html=1;align=center;verticalAlign=middle;resizable=0;points=[];" connectable="0" vertex="1" parent="dnEN6WmRxGEVYGNKKrur-107">
          <mxGeometry x="0.0377" relative="1" as="geometry">
            <mxPoint as="offset" />
          </mxGeometry>
        </mxCell>
        <mxCell id="dnEN6WmRxGEVYGNKKrur-84" value="watch film" style="rhombus;whiteSpace=wrap;html=1;" vertex="1" parent="1">
          <mxGeometry x="1815" y="2430" width="130" height="80" as="geometry" />
        </mxCell>
        <mxCell id="dnEN6WmRxGEVYGNKKrur-92" value="" style="edgeStyle=orthogonalEdgeStyle;rounded=0;orthogonalLoop=1;jettySize=auto;html=1;" edge="1" parent="1" source="dnEN6WmRxGEVYGNKKrur-86" target="dnEN6WmRxGEVYGNKKrur-91">
          <mxGeometry relative="1" as="geometry" />
        </mxCell>
        <mxCell id="dnEN6WmRxGEVYGNKKrur-86" value="input&lt;br&gt;[1]. play button&lt;br&gt;[2]. back" style="shape=parallelogram;perimeter=parallelogramPerimeter;whiteSpace=wrap;html=1;fixedSize=1;" vertex="1" parent="1">
          <mxGeometry x="1820" y="2600" width="120" height="60" as="geometry" />
        </mxCell>
        <mxCell id="dnEN6WmRxGEVYGNKKrur-94" style="edgeStyle=orthogonalEdgeStyle;rounded=0;orthogonalLoop=1;jettySize=auto;html=1;entryX=0;entryY=0.5;entryDx=0;entryDy=0;" edge="1" parent="1" source="dnEN6WmRxGEVYGNKKrur-89" target="dnEN6WmRxGEVYGNKKrur-86">
          <mxGeometry relative="1" as="geometry">
            <mxPoint x="1810" y="2620" as="targetPoint" />
            <Array as="points">
              <mxPoint x="1770" y="2900" />
              <mxPoint x="1770" y="2630" />
            </Array>
          </mxGeometry>
        </mxCell>
        <mxCell id="dnEN6WmRxGEVYGNKKrur-89" value="output&lt;br&gt;play film" style="shape=parallelogram;perimeter=parallelogramPerimeter;whiteSpace=wrap;html=1;fixedSize=1;" vertex="1" parent="1">
          <mxGeometry x="1820" y="2870" width="120" height="60" as="geometry" />
        </mxCell>
        <mxCell id="dnEN6WmRxGEVYGNKKrur-93" value="" style="edgeStyle=orthogonalEdgeStyle;rounded=0;orthogonalLoop=1;jettySize=auto;html=1;" edge="1" parent="1" source="dnEN6WmRxGEVYGNKKrur-91" target="dnEN6WmRxGEVYGNKKrur-89">
          <mxGeometry relative="1" as="geometry" />
        </mxCell>
        <mxCell id="dnEN6WmRxGEVYGNKKrur-97" value="true" style="edgeLabel;html=1;align=center;verticalAlign=middle;resizable=0;points=[];" connectable="0" vertex="1" parent="dnEN6WmRxGEVYGNKKrur-93">
          <mxGeometry x="-0.2314" y="2" relative="1" as="geometry">
            <mxPoint as="offset" />
          </mxGeometry>
        </mxCell>
        <mxCell id="dnEN6WmRxGEVYGNKKrur-96" value="" style="edgeStyle=orthogonalEdgeStyle;rounded=0;orthogonalLoop=1;jettySize=auto;html=1;" edge="1" parent="1" source="dnEN6WmRxGEVYGNKKrur-91" target="dnEN6WmRxGEVYGNKKrur-95">
          <mxGeometry relative="1" as="geometry" />
        </mxCell>
        <mxCell id="dnEN6WmRxGEVYGNKKrur-98" value="false" style="edgeLabel;html=1;align=center;verticalAlign=middle;resizable=0;points=[];" connectable="0" vertex="1" parent="dnEN6WmRxGEVYGNKKrur-96">
          <mxGeometry x="-0.0811" y="-3" relative="1" as="geometry">
            <mxPoint as="offset" />
          </mxGeometry>
        </mxCell>
        <mxCell id="dnEN6WmRxGEVYGNKKrur-91" value="play button" style="rhombus;whiteSpace=wrap;html=1;" vertex="1" parent="1">
          <mxGeometry x="1825" y="2730" width="110" height="80" as="geometry" />
        </mxCell>
        <mxCell id="dnEN6WmRxGEVYGNKKrur-100" value="" style="edgeStyle=orthogonalEdgeStyle;rounded=0;orthogonalLoop=1;jettySize=auto;html=1;" edge="1" parent="1" source="dnEN6WmRxGEVYGNKKrur-95" target="dnEN6WmRxGEVYGNKKrur-99">
          <mxGeometry relative="1" as="geometry" />
        </mxCell>
        <mxCell id="dnEN6WmRxGEVYGNKKrur-101" value="true" style="edgeLabel;html=1;align=center;verticalAlign=middle;resizable=0;points=[];" connectable="0" vertex="1" parent="dnEN6WmRxGEVYGNKKrur-100">
          <mxGeometry x="-0.1086" y="-1" relative="1" as="geometry">
            <mxPoint as="offset" />
          </mxGeometry>
        </mxCell>
        <mxCell id="dnEN6WmRxGEVYGNKKrur-95" value="Back" style="rhombus;whiteSpace=wrap;html=1;" vertex="1" parent="1">
          <mxGeometry x="2030" y="2730" width="130" height="80" as="geometry" />
        </mxCell>
        <mxCell id="dnEN6WmRxGEVYGNKKrur-99" value="I" style="ellipse;whiteSpace=wrap;html=1;" vertex="1" parent="1">
          <mxGeometry x="2077.5" y="2860" width="35" height="30" as="geometry" />
        </mxCell>
        <mxCell id="dnEN6WmRxGEVYGNKKrur-103" value="" style="edgeStyle=orthogonalEdgeStyle;rounded=0;orthogonalLoop=1;jettySize=auto;html=1;" edge="1" parent="1" source="dnEN6WmRxGEVYGNKKrur-102" target="dnEN6WmRxGEVYGNKKrur-82">
          <mxGeometry relative="1" as="geometry" />
        </mxCell>
        <mxCell id="dnEN6WmRxGEVYGNKKrur-102" value="I" style="ellipse;whiteSpace=wrap;html=1;aspect=fixed;" vertex="1" parent="1">
          <mxGeometry x="1670" y="2315" width="30" height="30" as="geometry" />
        </mxCell>
        <mxCell id="dnEN6WmRxGEVYGNKKrur-110" value="" style="edgeStyle=orthogonalEdgeStyle;rounded=0;orthogonalLoop=1;jettySize=auto;html=1;" edge="1" parent="1" source="dnEN6WmRxGEVYGNKKrur-106" target="dnEN6WmRxGEVYGNKKrur-109">
          <mxGeometry relative="1" as="geometry" />
        </mxCell>
        <mxCell id="dnEN6WmRxGEVYGNKKrur-113" value="true" style="edgeLabel;html=1;align=center;verticalAlign=middle;resizable=0;points=[];" connectable="0" vertex="1" parent="dnEN6WmRxGEVYGNKKrur-110">
          <mxGeometry x="-0.1417" y="2" relative="1" as="geometry">
            <mxPoint as="offset" />
          </mxGeometry>
        </mxCell>
        <mxCell id="dnEN6WmRxGEVYGNKKrur-106" value="back" style="rhombus;whiteSpace=wrap;html=1;" vertex="1" parent="1">
          <mxGeometry x="2100" y="2430" width="140" height="80" as="geometry" />
        </mxCell>
        <mxCell id="dnEN6WmRxGEVYGNKKrur-109" value="G" style="ellipse;whiteSpace=wrap;html=1;" vertex="1" parent="1">
          <mxGeometry x="2150" y="2590" width="40" height="40" as="geometry" />
        </mxCell>
        <mxCell id="dnEN6WmRxGEVYGNKKrur-118" value="" style="edgeStyle=orthogonalEdgeStyle;rounded=0;orthogonalLoop=1;jettySize=auto;html=1;" edge="1" parent="1" source="dnEN6WmRxGEVYGNKKrur-114" target="dnEN6WmRxGEVYGNKKrur-117">
          <mxGeometry relative="1" as="geometry" />
        </mxCell>
        <mxCell id="dnEN6WmRxGEVYGNKKrur-119" value="true" style="edgeLabel;html=1;align=center;verticalAlign=middle;resizable=0;points=[];" connectable="0" vertex="1" parent="dnEN6WmRxGEVYGNKKrur-118">
          <mxGeometry x="-0.1333" y="-2" relative="1" as="geometry">
            <mxPoint as="offset" />
          </mxGeometry>
        </mxCell>
        <mxCell id="dnEN6WmRxGEVYGNKKrur-114" value="Profile" style="rhombus;whiteSpace=wrap;html=1;" vertex="1" parent="1">
          <mxGeometry x="2340" y="1990" width="150" height="80" as="geometry" />
        </mxCell>
        <mxCell id="dnEN6WmRxGEVYGNKKrur-121" value="" style="edgeStyle=orthogonalEdgeStyle;rounded=0;orthogonalLoop=1;jettySize=auto;html=1;" edge="1" parent="1" source="dnEN6WmRxGEVYGNKKrur-117" target="dnEN6WmRxGEVYGNKKrur-120">
          <mxGeometry relative="1" as="geometry" />
        </mxCell>
        <mxCell id="dnEN6WmRxGEVYGNKKrur-117" value="output&lt;br&gt;show data user" style="shape=parallelogram;perimeter=parallelogramPerimeter;whiteSpace=wrap;html=1;fixedSize=1;" vertex="1" parent="1">
          <mxGeometry x="2310" y="2160" width="210" height="60" as="geometry" />
        </mxCell>
        <mxCell id="dnEN6WmRxGEVYGNKKrur-123" value="" style="edgeStyle=orthogonalEdgeStyle;rounded=0;orthogonalLoop=1;jettySize=auto;html=1;" edge="1" parent="1" source="dnEN6WmRxGEVYGNKKrur-120" target="dnEN6WmRxGEVYGNKKrur-122">
          <mxGeometry relative="1" as="geometry" />
        </mxCell>
        <mxCell id="dnEN6WmRxGEVYGNKKrur-120" value="input&lt;br&gt;[1]. Logout&lt;br&gt;[2]. back" style="shape=parallelogram;perimeter=parallelogramPerimeter;whiteSpace=wrap;html=1;fixedSize=1;" vertex="1" parent="1">
          <mxGeometry x="2332.5" y="2300" width="165" height="60" as="geometry" />
        </mxCell>
        <mxCell id="dnEN6WmRxGEVYGNKKrur-125" value="" style="edgeStyle=orthogonalEdgeStyle;rounded=0;orthogonalLoop=1;jettySize=auto;html=1;" edge="1" parent="1" source="dnEN6WmRxGEVYGNKKrur-122" target="dnEN6WmRxGEVYGNKKrur-124">
          <mxGeometry relative="1" as="geometry" />
        </mxCell>
        <mxCell id="dnEN6WmRxGEVYGNKKrur-126" value="true" style="edgeLabel;html=1;align=center;verticalAlign=middle;resizable=0;points=[];" connectable="0" vertex="1" parent="dnEN6WmRxGEVYGNKKrur-125">
          <mxGeometry x="-0.2216" relative="1" as="geometry">
            <mxPoint as="offset" />
          </mxGeometry>
        </mxCell>
        <mxCell id="dnEN6WmRxGEVYGNKKrur-132" value="" style="edgeStyle=orthogonalEdgeStyle;rounded=0;orthogonalLoop=1;jettySize=auto;html=1;" edge="1" parent="1" source="dnEN6WmRxGEVYGNKKrur-122" target="dnEN6WmRxGEVYGNKKrur-131">
          <mxGeometry relative="1" as="geometry" />
        </mxCell>
        <mxCell id="dnEN6WmRxGEVYGNKKrur-133" value="false" style="edgeLabel;html=1;align=center;verticalAlign=middle;resizable=0;points=[];" connectable="0" vertex="1" parent="dnEN6WmRxGEVYGNKKrur-132">
          <mxGeometry x="-0.0983" relative="1" as="geometry">
            <mxPoint as="offset" />
          </mxGeometry>
        </mxCell>
        <mxCell id="dnEN6WmRxGEVYGNKKrur-122" value="Logout" style="rhombus;whiteSpace=wrap;html=1;" vertex="1" parent="1">
          <mxGeometry x="2350" y="2430" width="130" height="80" as="geometry" />
        </mxCell>
        <mxCell id="dnEN6WmRxGEVYGNKKrur-128" value="" style="edgeStyle=orthogonalEdgeStyle;rounded=0;orthogonalLoop=1;jettySize=auto;html=1;" edge="1" parent="1" source="dnEN6WmRxGEVYGNKKrur-124" target="dnEN6WmRxGEVYGNKKrur-127">
          <mxGeometry relative="1" as="geometry" />
        </mxCell>
        <mxCell id="dnEN6WmRxGEVYGNKKrur-124" value="remove login and role&lt;br&gt;data in localstorage" style="whiteSpace=wrap;html=1;" vertex="1" parent="1">
          <mxGeometry x="2337.5" y="2600" width="155" height="60" as="geometry" />
        </mxCell>
        <mxCell id="dnEN6WmRxGEVYGNKKrur-127" value="J" style="ellipse;whiteSpace=wrap;html=1;" vertex="1" parent="1">
          <mxGeometry x="2397.5" y="2730" width="35" height="40" as="geometry" />
        </mxCell>
        <mxCell id="dnEN6WmRxGEVYGNKKrur-135" value="" style="edgeStyle=orthogonalEdgeStyle;rounded=0;orthogonalLoop=1;jettySize=auto;html=1;" edge="1" parent="1" source="dnEN6WmRxGEVYGNKKrur-131" target="dnEN6WmRxGEVYGNKKrur-134">
          <mxGeometry relative="1" as="geometry" />
        </mxCell>
        <mxCell id="dnEN6WmRxGEVYGNKKrur-136" value="true" style="edgeLabel;html=1;align=center;verticalAlign=middle;resizable=0;points=[];" connectable="0" vertex="1" parent="dnEN6WmRxGEVYGNKKrur-135">
          <mxGeometry x="-0.093" y="-2" relative="1" as="geometry">
            <mxPoint as="offset" />
          </mxGeometry>
        </mxCell>
        <mxCell id="dnEN6WmRxGEVYGNKKrur-131" value="back" style="rhombus;whiteSpace=wrap;html=1;" vertex="1" parent="1">
          <mxGeometry x="2630" y="2430" width="130" height="80" as="geometry" />
        </mxCell>
        <mxCell id="dnEN6WmRxGEVYGNKKrur-134" value="G" style="ellipse;whiteSpace=wrap;html=1;" vertex="1" parent="1">
          <mxGeometry x="2677.5" y="2590" width="35" height="30" as="geometry" />
        </mxCell>
        <mxCell id="dnEN6WmRxGEVYGNKKrur-139" value="" style="edgeStyle=orthogonalEdgeStyle;rounded=0;orthogonalLoop=1;jettySize=auto;html=1;" edge="1" parent="1" source="dnEN6WmRxGEVYGNKKrur-137" target="dnEN6WmRxGEVYGNKKrur-138">
          <mxGeometry relative="1" as="geometry" />
        </mxCell>
        <mxCell id="dnEN6WmRxGEVYGNKKrur-137" value="J" style="ellipse;whiteSpace=wrap;html=1;aspect=fixed;" vertex="1" parent="1">
          <mxGeometry x="1645" y="3150" width="50" height="50" as="geometry" />
        </mxCell>
        <mxCell id="dnEN6WmRxGEVYGNKKrur-138" value="END" style="strokeWidth=2;html=1;shape=mxgraph.flowchart.terminator;whiteSpace=wrap;" vertex="1" parent="1">
          <mxGeometry x="1625" y="3260" width="90" height="40" as="geometry" />
        </mxCell>
      </root>
    </mxGraphModel>
  </diagram>
</mxfile>
